999
FreeCAD v1.0 39109 (Git)
  0
SECTION
  2
HEADER
  9
$ACADVER
  1
AC1014
  9
$ACADMAINTVER
 70
     9
  9
$DWGCODEPAGE
  3
ANSI_1252
  9
$TEXTSTYLE
  7
STANDARD
  9
$DIMSTYLE
  2
STANDARD
  9
$DIMTXSTY
  7
STANDARD
  9
$CMLSTYLE
  2
STANDARD
  9
$LUNITS
 70
2
  9
$INSUNITS
 70
4
  9
$PEXTMAX
 10
50
 20
50
 30
50
  9
$PEXTMIN
 10
0
 20
0
 30
0
  9
$HANDSEED
  5
FFFF
  0
ENDSEC
  0
SECTION
  2
CLASSES
  0
CLASS
  1
ACDBDICTIONARYWDFLT
  2
AcDbDictionaryWithDefault
  3
ObjectDBX Classes
 90
        0
280
     0
281
     0
  0
CLASS
  1
XRECORD
  2
AcDbXrecord
  3
ObjectDBX Classes
 90
        0
280
     0
281
     0
  0
CLASS
  1
LWPOLYLINE
  2
AcDbPolyline
  3
ObjectDBX Classes
 90
        0
280
     0
281
     1
  0
ENDSEC
  0
SECTION
  2
TABLES
  0
TABLE
  2
VPORT
  5
20
330
0
100
AcDbSymbolTable
 70
     1
  0
VPORT
  5
21
330
20
100
AcDbSymbolTableRecord
100
AcDbViewportTableRecord
  2
*ACTIVE
 70
     0
  0
ENDTAB
  0
TABLE
  2
LTYPE
  5
22
330
0
100
AcDbSymbolTable
 70
     1
  0
LTYPE
  5
23
330
21
100
AcDbSymbolTableRecord
100
AcDbLinetypeTableRecord
  2
BYBLOCK
 70
     0
  3

 72
    65
 73
     0
 40
0.0
  0
LTYPE
  5
24
330
21
100
AcDbSymbolTableRecord
100
AcDbLinetypeTableRecord
  2
BYLAYER
 70
     0
  3

 72
    65
 73
     0
 40
0.0
  0
LTYPE
  5
25
330
21
100
AcDbSymbolTableRecord
100
AcDbLinetypeTableRecord
  2
CONTINUOUS
 70
     0
  3
Solid line
 72
    65
 73
     0
 40
0.0
  0
ENDTAB
  0
TABLE
  2
LAYER
  5
ACC
330
0
100
AcDbSymbolTable
 70
7
  0
LAYER
  5
ACD
330
ACC
100
AcDbSymbolTableRecord
100
AcDbLayerTableRecord
  2
0
 70
   0
 62
   7
  6
CONTINUOUS
  0
LAYER
  5
ACE
330
ACC
100
AcDbSymbolTableRecord
100
AcDbLayerTableRecord
  2
View
 70
    0
 62
    7
  6
CONTINUOUS
  0
LAYER
  5
ACF
330
ACC
100
AcDbSymbolTableRecord
100
AcDbLayerTableRecord
  2
ProjItem001
 70
    0
 62
    7
  6
CONTINUOUS
  0
LAYER
  5
AD0
330
ACC
100
AcDbSymbolTableRecord
100
AcDbLayerTableRecord
  2
SectionView
 70
    0
 62
    7
  6
CONTINUOUS
  0
LAYER
  5
AD1
330
ACC
100
AcDbSymbolTableRecord
100
AcDbLayerTableRecord
  2
Dimension
 70
    0
 62
    7
  6
CONTINUOUS
  0
LAYER
  5
AD2
330
ACC
100
AcDbSymbolTableRecord
100
AcDbLayerTableRecord
  2
Dimension001
 70
    0
 62
    7
  6
CONTINUOUS
  0
LAYER
  5
AD3
330
ACC
100
AcDbSymbolTableRecord
100
AcDbLayerTableRecord
  2
Dimension002
 70
    0
 62
    7
  6
CONTINUOUS
  0
ENDTAB
  0
TABLE
  2
STYLE
  5
70
330
0
100
AcDbSymbolTable
 70
     2
  0
STYLE
  5
71
330
70
100
AcDbSymbolTableRecord
100
AcDbTextStyleTableRecord
  2
STANDARD
 70
     0
 40
0.0
 41
1.0
 50
0.0
 71
     0
 42
2.5
  3
arial.ttf
  4

  0
STYLE
  5
72
330
70
100
AcDbSymbolTableRecord
100
AcDbTextStyleTableRecord
  2
ANNOTATIVE
 70
     0
 40
0.0
 41
1.0
 50
0.0
 71
     0
 42
2.5
  3
arial.ttf
  4

  0
ENDTAB
  0
TABLE
  2
VIEW
  5
73
330
0
100
AcDbSymbolTable
 70
     0
  0
ENDTAB
  0
TABLE
  2
UCS
  5
74
330
0
100
AcDbSymbolTable
 70
     0
  0
ENDTAB
  0
TABLE
  2
APPID
  5
75
330
0
100
AcDbSymbolTable
 70
     2
  0
APPID
  5
76
330
75
100
AcDbSymbolTableRecord
100
AcDbRegAppTableRecord
  2
ACAD
 70
     0
  0
APPID
  5
77
330
75
100
AcDbSymbolTableRecord
100
AcDbRegAppTableRecord
  2
ACADANNOTATIVE
 70
     0
  0
ENDTAB
  0
TABLE
  2
DIMSTYLE
  5
78
330
0
100
AcDbSymbolTable
 70
     2
  0
DIMSTYLE
105
79
330
78
100
AcDbSymbolTableRecord
100
AcDbDimStyleTableRecord
  2
STANDARD
 70
     0
  3

  4

  5

  6

  7

 40
0.0
 41
2.5
 42
0.625
 43
3.75
 44
1.25
 45
0.0
 46
0.0
 47
0.0
 48
0.0
140
2.5
141
2.5
142
0.0
143
0.03937007874016
144
1.0
145
0.0
146
1.0
147
0.625
 71
     0
 72
     0
 73
     0
 74
     0
 75
     0
 76
     0
 77
     1
 78
     8
170
     0
171
     3
172
     1
173
     0
174
     0
175
     0
176
     0
177
     0
178
     0
270
     2
271
     2
272
     2
273
     2
274
     3
340
71
275
     0
280
     0
281
     0
282
     0
283
     0
284
     8
285
     0
286
     0
287
     3
288
     0
  0
ENDTAB
  0
TABLE
  2
BLOCK_RECORD
  5
A01
330
0
100
AcDbSymbolTable
  70
5
  0
BLOCK_RECORD
  5
A02
330
A01
100
AcDbSymbolTableRecord
100
AcDbBlockTableRecord
  2
*MODEL_SPACE
  0
BLOCK_RECORD
  5
A03
330
A01
100
AcDbSymbolTableRecord
100
AcDbBlockTableRecord
  2
*PAPER_SPACE
  0
BLOCK_RECORD
  5
AB3
330
A01
100
AcDbSymbolTableRecord
100
AcDbBlockTableRecord
  2
*Dimension
  0
BLOCK_RECORD
  5
ABB
330
A01
100
AcDbSymbolTableRecord
100
AcDbBlockTableRecord
  2
*Dimension001
  0
BLOCK_RECORD
  5
AC3
330
A01
100
AcDbSymbolTableRecord
100
AcDbBlockTableRecord
  2
*Dimension002
  0
ENDTAB
  0
ENDSEC
  0
SECTION
  2
BLOCKS
  0
BLOCK
  5
A04
330
A02
100
AcDbEntity
  8
0
100
AcDbBlockBegin
  2
*MODEL_SPACE
 70
   0
 10
0
 20
0
 30
0
  3
*MODEL_SPACE
  1
 
  0
ENDBLK
  5
A05
330
A02
100
AcDbEntity
  8
0
100
AcDbBlockEnd
  0
BLOCK
  5
A06
330
A03
100
AcDbEntity
 67
1
  8
0
100
AcDbBlockBegin
  2
*PAPER_SPACE
 70
   0
 10
0
 20
0
 30
0
  3
*PAPER_SPACE
  1
 
  0
ENDBLK
  5
A07
330
A03
100
AcDbEntity
 67
    1
  8
0
100
AcDbBlockEnd
  0
BLOCK
  5
AB4
330
AB3
100
AcDbEntity
  8
Dimension
100
AcDbBlockBegin
  2
*Dimension
 70
   1
 10
0
 20
0
 30
0
  3
*Dimension
  1
 
  0
LINE
  5
AB5
330
AB3
100
AcDbEntity
  8
Dimension
100
AcDbLine
 10
54.5147
 20
63.5667
 30
0
 11
56.9601
 21
61.8289
 31
0
  0
TEXT
  5
AB6
330
AB3
100
AcDbEntity
  8
Dimension
100
AcDbText
 10
46.4948
 20
74.66
 30
0
 40
3.5
  1
⌀3
  7
STANDARD
 72
1
 11
46.4948
 21
74.66
 31
0
100
AcDbText
  0
SOLID
  5
AB7
330
AB3
100
AcDbEntity
  8
0
 62
     0
100
AcDbTrace
 10
58.8318
 20
61.0101
 30
0
 11
58.349
 21
60.3308
 31
0
 12
54.5147
 22
63.5667
 32
0
 13
54.5147
 23
63.5667
 33
0
  0
SOLID
  5
AB8
330
AB3
100
AcDbEntity
  8
0
 62
     0
100
AcDbTrace
 10
53.1258
 20
65.0649
 30
0
 11
52.6431
 21
64.3856
 31
0
 12
56.9601
 22
61.8289
 32
0
 13
56.9601
 23
61.8289
 33
0
  0
ENDBLK
  5
AB9
330
AB3
100
AcDbEntity
  8
Dimension
100
AcDbBlockEnd
  0
BLOCK
  5
ABC
330
ABB
100
AcDbEntity
  8
Dimension001
100
AcDbBlockBegin
  2
*Dimension001
 70
   1
 10
0
 20
0
 30
0
  3
*Dimension001
  1
 
  0
LINE
  5
ABD
330
ABB
100
AcDbEntity
  8
Dimension001
100
AcDbLine
 10
23.0935
 20
66.7949
 30
0
 11
88.3813
 21
58.6008
 31
0
  0
TEXT
  5
ABE
330
ABB
100
AcDbEntity
  8
Dimension001
100
AcDbText
 10
13.0221
 20
72.4903
 30
0
 40
3.5
  1
⌀65.8
  7
STANDARD
 72
1
 11
13.0221
 21
72.4903
 31
0
100
AcDbText
  0
SOLID
  5
ABF
330
ABB
100
AcDbEntity
  8
0
 62
     0
100
AcDbTrace
 10
28.1065
 20
66.5857
 30
0
 11
28.0027
 21
65.7588
 31
0
 12
23.0935
 22
66.7949
 32
0
 13
23.0935
 23
66.7949
 33
0
  0
SOLID
  5
AC0
330
ABB
100
AcDbEntity
  8
0
 62
     0
100
AcDbTrace
 10
83.4721
 20
59.6369
 30
0
 11
83.3683
 21
58.81
 31
0
 12
88.3813
 22
58.6008
 32
0
 13
88.3813
 23
58.6008
 33
0
  0
ENDBLK
  5
AC1
330
ABB
100
AcDbEntity
  8
Dimension001
100
AcDbBlockEnd
  0
BLOCK
  5
AC4
330
AC3
100
AcDbEntity
  8
Dimension002
100
AcDbBlockBegin
  2
*Dimension002
 70
   1
 10
0
 20
0
 30
0
  3
*Dimension002
  1
 
  0
LINE
  5
AC5
330
AC3
100
AcDbEntity
  8
Dimension002
100
AcDbLine
 10
133.637
 20
95.5978
 30
0
 11
133.637
 21
100.864
 31
0
  0
LINE
  5
AC6
330
AC3
100
AcDbEntity
  8
Dimension002
100
AcDbLine
 10
108.637
 20
95.5978
 30
0
 11
108.637
 21
100.864
 31
0
  0
LINE
  5
AC7
330
AC3
100
AcDbEntity
  8
Dimension002
100
AcDbLine
 10
108.637
 20
100.864
 30
0
 11
133.637
 21
100.864
 31
0
  0
TEXT
  5
AC8
330
AC3
100
AcDbEntity
  8
Dimension002
100
AcDbText
 10
121.137
 20
105.864
 30
0
 40
3.5
  1
25
  7
STANDARD
 72
1
 11
121.137
 21
100.864
 31
0
100
AcDbText
  0
SOLID
  5
AC9
330
AC3
100
AcDbEntity
  8
0
 62
     0
100
AcDbTrace
 10
103.637
 20
101.281
 30
0
 11
103.637
 21
100.448
 31
0
 12
108.637
 22
100.864
 32
0
 13
108.637
 23
100.864
 33
0
  0
SOLID
  5
ACA
330
AC3
100
AcDbEntity
  8
0
 62
     0
100
AcDbTrace
 10
138.637
 20
101.281
 30
0
 11
138.637
 21
100.448
 31
0
 12
133.637
 22
100.864
 32
0
 13
133.637
 23
100.864
 33
0
  0
ENDBLK
  5
ACB
330
AC3
100
AcDbEntity
  8
Dimension002
100
AcDbBlockEnd
  0
ENDSEC
  0
SECTION
  2
ENTITIES
  0
ARC
  5
A08
330
A02
100
AcDbEntity
  8
View
100
AcDbCircle
 10
55.737410072
 20
62.697841727
 30
0.000000000
 40
29.000000000
100
AcDbArc
 50
-90.000000000
 51
-20.909007883
  0
ARC
  5
A09
330
A02
100
AcDbEntity
  8
View
100
AcDbCircle
 10
55.737410072
 20
62.697841727
 30
0.000000000
 40
29.000000000
100
AcDbArc
 50
-0.000018724
 51
39.090994913
  0
ARC
  5
A0A
330
A02
100
AcDbEntity
  8
View
100
AcDbCircle
 10
55.737410072
 20
62.697841727
 30
0.000000000
 40
29.000000000
100
AcDbArc
 50
59.999999949
 51
159.090995010
  0
ARC
  5
A0B
330
A02
100
AcDbEntity
  8
View
100
AcDbCircle
 10
55.737410072
 20
62.697841727
 30
0.000000000
 40
29.000000000
100
AcDbArc
 50
180.000000000
 51
-170.909005839
  0
ARC
  5
A0C
330
A02
100
AcDbEntity
  8
View
100
AcDbCircle
 10
55.737410072
 20
62.697841727
 30
0.000000000
 40
29.000000000
100
AcDbArc
 50
-149.999986019
 51
-110.909006113
  0
CIRCLE
  5
A0D
330
A02
100
AcDbEntity
  8
View
100
AcDbCircle
 10
55.737410072
 20
74.197841727
 30
0.000000000
 40
1.500000000
  0
CIRCLE
  5
A0E
330
A02
100
AcDbEntity
  8
View
100
AcDbCircle
 10
44.237410072
 20
62.697841727
 30
0.000000000
 40
1.500000000
  0
CIRCLE
  5
A0F
330
A02
100
AcDbEntity
  8
View
100
AcDbCircle
 10
55.737410072
 20
51.197841727
 30
0.000000000
 40
1.500000000
  0
CIRCLE
  5
A10
330
A02
100
AcDbEntity
  8
View
100
AcDbCircle
 10
67.237410072
 20
62.697841727
 30
0.000000000
 40
1.500000000
  0
CIRCLE
  5
A11
330
A02
100
AcDbEntity
  8
View
100
AcDbCircle
 10
55.737410072
 20
62.697841727
 30
0.000000000
 40
1.500000000
  0
ARC
  5
A12
330
A02
100
AcDbEntity
  8
View
100
AcDbCircle
 10
55.737417455
 20
62.697841727
 30
0.000000000
 40
29.000001403
100
AcDbArc
 50
-50.909001444
 51
-29.999998400
  0
LINE
  5
A13
330
A02
100
AcDbEntity
  8
View
100
AcDbLine
 10
80.852155784
 20
48.197841727
 30
0.000000000
 11
84.229653239
 21
46.247841727
 31
0.000000000
  0
ARC
  5
A14
330
A02
100
AcDbEntity
  8
View
100
AcDbCircle
 10
55.737417455
 20
62.697841727
 30
0.000000000
 40
32.900000000
100
AcDbArc
 50
-50.909017155
 51
-30.000000000
  0
LINE
  5
A15
330
A02
100
AcDbEntity
  8
View
100
AcDbLine
 10
74.023480830
 20
40.189621727
 30
0.000000000
 11
76.482633072
 21
37.162649756
 31
0.000000000
  0
ARC
  5
A16
330
A02
100
AcDbEntity
  8
View
100
AcDbCircle
 10
55.737402328
 20
62.697841727
 30
0.000000000
 40
29.000000325
100
AcDbArc
 50
-140.908979798
 51
-119.999981961
  0
LINE
  5
A17
330
A02
100
AcDbEntity
  8
View
100
AcDbLine
 10
41.237410072
 20
37.583100170
 30
0.000000000
 11
39.287423418
 21
34.205593765
 31
0.000000000
  0
ARC
  5
A18
330
A02
100
AcDbEntity
  8
View
100
AcDbCircle
 10
55.737402328
 20
62.697841727
 30
0.000000000
 40
32.900000000
100
AcDbArc
 50
-140.908979275
 51
-119.999957588
  0
LINE
  5
A19
330
A02
100
AcDbEntity
  8
View
100
AcDbLine
 10
33.229190072
 20
44.411770527
 30
0.000000000
 11
30.202224072
 21
41.952609227
 31
0.000000000
  0
ARC
  5
A1A
330
A02
100
AcDbEntity
  8
View
100
AcDbCircle
 10
55.737410072
 20
62.697841942
 30
0.000000000
 40
28.999999769
100
AcDbArc
 50
39.090994583
 51
59.999999736
  0
LINE
  5
A1B
330
A02
100
AcDbEntity
  8
View
100
AcDbLine
 10
70.237410072
 20
87.812578385
 30
0.000000000
 11
72.187410072
 21
91.190077727
 31
0.000000000
  0
ARC
  5
A1C
330
A02
100
AcDbEntity
  8
View
100
AcDbCircle
 10
55.737410072
 20
62.697841942
 30
0.000000000
 40
32.900000000
100
AcDbArc
 50
39.091000394
 51
60.000000000
  0
LINE
  5
A1D
330
A02
100
AcDbEntity
  8
View
100
AcDbLine
 10
78.245630072
 20
80.983902727
 30
0.000000000
 11
81.272595689
 21
83.443065380
 31
0.000000000
  0
ARC
  5
A1E
330
A02
100
AcDbEntity
  8
View
100
AcDbCircle
 10
55.737409856
 20
62.697841727
 30
0.000000000
 40
28.999999864
100
AcDbArc
 50
129.090981823
 51
149.999988112
  0
LINE
  5
A1F
330
A02
100
AcDbEntity
  8
View
100
AcDbLine
 10
30.622676273
 20
77.197846870
 30
0.000000000
 11
27.245174072
 21
79.147841727
 31
0.000000000
  0
ARC
  5
A20
330
A02
100
AcDbEntity
  8
View
100
AcDbCircle
 10
55.737409856
 20
62.697841727
 30
0.000000000
 40
32.900000000
100
AcDbArc
 50
129.090998927
 51
150.000000000
  0
LINE
  5
A21
330
A02
100
AcDbEntity
  8
View
100
AcDbLine
 10
37.451354025
 20
85.206065873
 30
0.000000000
 11
34.992187072
 21
88.233027875
 31
0.000000000
  0
ARC
  5
A22
330
A02
100
AcDbEntity
  8
View
100
AcDbCircle
 10
55.737411756
 20
62.697841727
 30
0.000000000
 40
28.999998541
100
AcDbArc
 50
9.090988481
 51
29.999995797
  0
LINE
  5
A23
330
A02
100
AcDbEntity
  8
View
100
AcDbLine
 10
80.852148266
 20
77.197839155
 30
0.000000000
 11
84.229647541
 21
79.147841727
 31
0.000000000
  0
ARC
  5
A24
330
A02
100
AcDbEntity
  8
View
100
AcDbCircle
 10
55.737411756
 20
62.697841727
 30
0.000000000
 40
32.900000000
100
AcDbArc
 50
9.090999166
 51
30.000000000
  0
LINE
  5
A25
330
A02
100
AcDbEntity
  8
View
100
AcDbLine
 10
84.373131739
 20
67.279921658
 30
0.000000000
 11
88.224143022
 21
67.896138727
 31
0.000000000
  0
ARC
  5
A26
330
A02
100
AcDbEntity
  8
View
100
AcDbCircle
 10
55.737410072
 20
62.697841727
 30
0.000000000
 40
29.000000000
100
AcDbArc
 50
-170.909005839
 51
-149.999986019
  0
LINE
  5
A27
330
A02
100
AcDbEntity
  8
View
100
AcDbLine
 10
30.622676900
 20
48.197835598
 30
0.000000000
 11
27.245174287
 21
46.247841727
 31
0.000000000
  0
ARC
  5
A28
330
A02
100
AcDbEntity
  8
View
100
AcDbCircle
 10
55.737410072
 20
62.697841727
 30
0.000000000
 40
32.900000000
100
AcDbArc
 50
-170.908992132
 51
-150.000000000
  0
LINE
  5
A29
330
A02
100
AcDbEntity
  8
View
100
AcDbLine
 10
27.101689104
 20
58.115758727
 30
0.000000000
 11
23.250679596
 21
57.499539793
 31
0.000000000
  0
ARC
  5
A2A
330
A02
100
AcDbEntity
  8
View
100
AcDbCircle
 10
55.737410072
 20
62.697845418
 30
0.000000000
 40
29.000006266
100
AcDbArc
 50
-80.909007820
 51
-59.999994290
  0
LINE
  5
A2B
330
A02
100
AcDbEntity
  8
View
100
AcDbLine
 10
70.237415708
 20
37.583104727
 30
0.000000000
 11
72.187410072
 21
34.205609634
 31
0.000000000
  0
ARC
  5
A2C
330
A02
100
AcDbEntity
  8
View
100
AcDbCircle
 10
55.737410072
 20
62.697845418
 30
0.000000000
 40
32.900000000
100
AcDbArc
 50
-80.909000834
 51
-60.000000000
  0
LINE
  5
A2D
330
A02
100
AcDbEntity
  8
View
100
AcDbLine
 10
60.319493072
 20
34.062118104
 30
0.000000000
 11
60.935707072
 21
30.211114153
 31
0.000000000
  0
ARC
  5
A2E
330
A02
100
AcDbEntity
  8
View
100
AcDbCircle
 10
55.737410072
 20
62.697839238
 30
0.000000000
 40
29.000002406
100
AcDbArc
 50
99.090993400
 51
119.999997255
  0
LINE
  5
A2F
330
A02
100
AcDbEntity
  8
View
100
AcDbLine
 10
41.237410072
 20
87.812578727
 30
0.000000000
 11
39.287422300
 21
91.190082083
 31
0.000000000
  0
ARC
  5
A30
330
A02
100
AcDbEntity
  8
View
100
AcDbCircle
 10
55.737410072
 20
62.697839238
 30
0.000000000
 40
32.900000000
100
AcDbArc
 50
99.090999166
 51
119.999975409
  0
LINE
  5
A31
330
A02
100
AcDbEntity
  8
View
100
AcDbLine
 10
51.155327072
 20
91.333562644
 30
0.000000000
 11
50.539113072
 21
95.184570504
 31
0.000000000
  0
ARC
  5
A32
330
A02
100
AcDbEntity
  8
View
100
AcDbCircle
 10
55.737410072
 20
62.697841727
 30
0.000000000
 40
29.000000000
100
AcDbArc
 50
159.090995010
 51
180.000000000
  0
LINE
  5
A33
330
A02
100
AcDbEntity
  8
View
100
AcDbLine
 10
26.737410072
 20
62.697841727
 30
0.000000000
 11
22.837410072
 21
62.697841081
 31
0.000000000
  0
ARC
  5
A34
330
A02
100
AcDbEntity
  8
View
100
AcDbCircle
 10
55.737410072
 20
62.697841727
 30
0.000000000
 40
32.900000000
100
AcDbArc
 50
159.090995010
 51
-179.999998876
  0
LINE
  5
A35
330
A02
100
AcDbEntity
  8
View
100
AcDbLine
 10
28.647106604
 20
73.047501529
 30
0.000000000
 11
25.003927862
 21
74.439352330
 31
0.000000000
  0
LINE
  5
A36
330
A02
100
AcDbEntity
  8
View
100
AcDbLine
 10
45.387749738
 20
35.607538462
 30
0.000000000
 11
43.995902145
 21
31.964358494
 31
0.000000000
  0
ARC
  5
A37
330
A02
100
AcDbEntity
  8
View
100
AcDbCircle
 10
55.737410072
 20
62.697841727
 30
0.000000000
 40
32.900000000
100
AcDbArc
 50
-110.909000000
 51
-90.000000000
  0
LINE
  5
A38
330
A02
100
AcDbEntity
  8
View
100
AcDbLine
 10
55.737410072
 20
33.697841727
 30
0.000000000
 11
55.737410072
 21
29.797841727
 31
0.000000000
  0
ARC
  5
A39
330
A02
100
AcDbEntity
  8
View
100
AcDbCircle
 10
55.737410072
 20
62.697841727
 30
0.000000000
 40
29.000000000
100
AcDbArc
 50
-110.909006113
 51
-90.000000000
  0
ARC
  5
A3A
330
A02
100
AcDbEntity
  8
View
100
AcDbCircle
 10
55.737410072
 20
62.697841727
 30
0.000000000
 40
29.000003230
100
AcDbArc
 50
69.090997030
 51
90.000000000
  0
LINE
  5
A3B
330
A02
100
AcDbEntity
  8
View
100
AcDbLine
 10
55.737410072
 20
91.697844957
 30
0.000000000
 11
55.737410072
 21
95.597841727
 31
0.000000000
  0
ARC
  5
A3C
330
A02
100
AcDbEntity
  8
View
100
AcDbCircle
 10
55.737410072
 20
62.697841727
 30
0.000000000
 40
32.900000000
100
AcDbArc
 50
69.090999863
 51
90.000000000
  0
LINE
  5
A3D
330
A02
100
AcDbEntity
  8
View
100
AcDbLine
 10
66.087070072
 20
89.788148577
 30
0.000000000
 11
67.478918072
 21
93.431324931
 31
0.000000000
  0
ARC
  5
A3E
330
A02
100
AcDbEntity
  8
View
100
AcDbCircle
 10
55.737410072
 20
62.697841727
 30
0.000000000
 40
28.999996721
100
AcDbArc
 50
-20.909007883
 51
-0.000018724
  0
LINE
  5
A3F
330
A02
100
AcDbEntity
  8
View
100
AcDbLine
 10
84.737406793
 20
62.697832250
 30
0.000000000
 11
88.637410072
 21
62.697830975
 31
0.000000000
  0
ARC
  5
A40
330
A02
100
AcDbEntity
  8
View
100
AcDbCircle
 10
55.737410072
 20
62.697841727
 30
0.000000000
 40
32.900000000
100
AcDbArc
 50
-20.909000137
 51
-0.000018724
  0
LINE
  5
A41
330
A02
100
AcDbEntity
  8
View
100
AcDbLine
 10
82.827709955
 20
52.348181727
 30
0.000000000
 11
86.470893277
 21
50.956333727
 31
0.000000000
  0
LINE
  5
A42
330
A02
100
AcDbEntity
  8
View
100
AcDbLine
 10
59.237410072
 20
51.197841727
 30
0.000000000
 11
52.237410072
 21
51.197841727
 31
0.000000000
  0
LINE
  5
A43
330
A02
100
AcDbEntity
  8
View
100
AcDbLine
 10
55.737410072
 20
54.697841727
 30
0.000000000
 11
55.737410072
 21
47.697841727
 31
0.000000000
  0
LINE
  5
A44
330
A02
100
AcDbEntity
  8
View
100
AcDbLine
 10
47.737410072
 20
62.697841727
 30
0.000000000
 11
40.737410072
 21
62.697841727
 31
0.000000000
  0
LINE
  5
A45
330
A02
100
AcDbEntity
  8
View
100
AcDbLine
 10
44.237410072
 20
66.197841727
 30
0.000000000
 11
44.237410072
 21
59.197841727
 31
0.000000000
  0
LINE
  5
A46
330
A02
100
AcDbEntity
  8
View
100
AcDbLine
 10
59.237410072
 20
62.697841727
 30
0.000000000
 11
52.237410072
 21
62.697841727
 31
0.000000000
  0
LINE
  5
A47
330
A02
100
AcDbEntity
  8
View
100
AcDbLine
 10
55.737410072
 20
66.197841727
 30
0.000000000
 11
55.737410072
 21
59.197841727
 31
0.000000000
  0
LINE
  5
A48
330
A02
100
AcDbEntity
  8
View
100
AcDbLine
 10
70.737410072
 20
62.697841727
 30
0.000000000
 11
63.737410072
 21
62.697841727
 31
0.000000000
  0
LINE
  5
A49
330
A02
100
AcDbEntity
  8
View
100
AcDbLine
 10
67.237410072
 20
66.197841727
 30
0.000000000
 11
67.237410072
 21
59.197841727
 31
0.000000000
  0
SPLINE
  5
A4A
330
A02
100
AcDbEntity
  8
ProjItem001
100
AcDbSpline
210
0
220
0
230
1
 70
8
 71
2
 72
6
 73
3
 74
0
 40
4.188790000
 40
4.188790000
 40
4.188790000
 40
4.295541746
 40
4.295541746
 40
4.295541746
 10
108.637410172
 20
77.197846870
 30
0.000000000
 10
108.637410172
 20
75.855859008
 30
0.000000000
 10
108.637410172
 20
74.439352330
 30
0.000000000
  0
SPLINE
  5
A4B
330
A02
100
AcDbEntity
  8
ProjItem001
100
AcDbSpline
210
0
220
0
230
1
 70
8
 71
2
 72
6
 73
3
 74
0
 40
4.712389003
 40
4.712389003
 40
4.712389003
 40
4.871056761
 40
4.871056761
 40
4.871056761
 10
108.637410172
 20
62.697841081
 30
0.000000000
 10
108.637410172
 20
60.392407140
 30
0.000000000
 10
108.637410172
 20
58.115758727
 30
0.000000000
  0
SPLINE
  5
A4C
330
A02
100
AcDbEntity
  8
ProjItem001
100
AcDbSpline
210
0
220
0
230
1
 70
8
 71
2
 72
6
 73
3
 74
0
 40
5.315541293
 40
5.315541293
 40
5.315541293
 40
5.394656000
 40
5.394656000
 40
5.394656000
 10
108.637410172
 20
46.247841727
 30
0.000000000
 10
108.637410172
 20
45.302731265
 30
0.000000000
 10
108.637410172
 20
44.411770527
 30
0.000000000
  0
SPLINE
  5
A4D
330
A02
100
AcDbEntity
  8
ProjItem001
100
AcDbSpline
210
0
220
0
230
1
 70
8
 71
2
 72
6
 73
3
 74
0
 40
4.188790000
 40
4.188790000
 40
4.188790000
 40
4.295541746
 40
4.295541746
 40
4.295541746
 10
116.887410172
 20
77.197846870
 30
0.000000000
 10
116.887410172
 20
75.855859008
 30
0.000000000
 10
116.887410172
 20
74.439352330
 30
0.000000000
  0
SPLINE
  5
A4E
330
A02
100
AcDbEntity
  8
ProjItem001
100
AcDbSpline
210
0
220
0
230
1
 70
8
 71
2
 72
6
 73
3
 74
0
 40
4.712389003
 40
4.712389003
 40
4.712389003
 40
4.871056761
 40
4.871056761
 40
4.871056761
 10
116.887410172
 20
62.697841081
 30
0.000000000
 10
116.887410172
 20
60.392407140
 30
0.000000000
 10
116.887410172
 20
58.115758727
 30
0.000000000
  0
SPLINE
  5
A4F
330
A02
100
AcDbEntity
  8
ProjItem001
100
AcDbSpline
210
0
220
0
230
1
 70
8
 71
2
 72
6
 73
3
 74
0
 40
5.315541293
 40
5.315541293
 40
5.315541293
 40
5.394656000
 40
5.394656000
 40
5.394656000
 10
116.887410172
 20
46.247841727
 30
0.000000000
 10
116.887410172
 20
45.302731265
 30
0.000000000
 10
116.887410172
 20
44.411770527
 30
0.000000000
  0
SPLINE
  5
A50
330
A02
100
AcDbEntity
  8
ProjItem001
100
AcDbSpline
210
0
220
0
230
1
 70
8
 71
2
 72
6
 73
3
 74
0
 40
0.888529346
 40
0.888529346
 40
0.888529346
 40
0.967644048
 40
0.967644048
 40
0.967644048
 10
133.637410172
 20
44.411770527
 30
0.000000000
 10
133.637410172
 20
45.302731269
 30
0.000000000
 10
133.637410172
 20
46.247841727
 30
0.000000000
  0
LINE
  5
A51
330
A02
100
AcDbEntity
  8
ProjItem001
100
AcDbLine
 10
108.637410172
 20
44.411770527
 30
0.000000000
 11
133.637410172
 21
44.411770527
 31
0.000000000
  0
LINE
  5
A52
330
A02
100
AcDbEntity
  8
ProjItem001
100
AcDbLine
 10
108.637410172
 20
34.205593765
 30
0.000000000
 11
133.637410172
 21
34.205593765
 31
0.000000000
  0
LINE
  5
A53
330
A02
100
AcDbEntity
  8
ProjItem001
100
AcDbLine
 10
108.637410172
 20
41.952609227
 30
0.000000000
 11
133.637410172
 21
41.952609227
 31
0.000000000
  0
SPLINE
  5
A54
330
A02
100
AcDbEntity
  8
ProjItem001
100
AcDbSpline
210
0
220
0
230
1
 70
8
 71
1
 72
17
 73
15
 74
0
 40
5.394656000
 40
5.394656000
 40
5.420722519
 40
5.446789039
 40
5.472855558
 40
5.498922078
 40
5.524988597
 40
5.551055116
 40
5.577121636
 40
5.603188155
 40
5.629254675
 40
5.655321194
 40
5.681387714
 40
5.707454233
 40
5.733520752
 40
5.759587272
 40
5.759587272
 10
108.637410172
 20
41.952609227
 30
0.000000000
 10
108.637410172
 20
41.294118796
 30
0.000000000
 10
108.637410172
 20
40.650170588
 30
0.000000000
 10
108.637410172
 20
40.021202119
 30
0.000000000
 10
108.637410172
 20
39.407640724
 30
0.000000000
 10
108.637410172
 20
38.809903274
 30
0.000000000
 10
108.637410172
 20
38.228395885
 30
0.000000000
 10
108.637410172
 20
37.663513649
 30
0.000000000
 10
108.637410172
 20
37.115640360
 30
0.000000000
 10
108.637410172
 20
36.585148257
 30
0.000000000
 10
108.637410172
 20
36.072397770
 30
0.000000000
 10
108.637410172
 20
35.577737274
 30
0.000000000
 10
108.637410172
 20
35.101502854
 30
0.000000000
 10
108.637410172
 20
34.644018076
 30
0.000000000
 10
108.637410172
 20
34.205593765
 30
0.000000000
  0
SPLINE
  5
A55
330
A02
100
AcDbEntity
  8
ProjItem001
100
AcDbSpline
210
0
220
0
230
1
 70
8
 71
1
 72
17
 73
15
 74
0
 40
5.394656000
 40
5.394656000
 40
5.420722519
 40
5.446789039
 40
5.472855558
 40
5.498922078
 40
5.524988597
 40
5.551055116
 40
5.577121636
 40
5.603188155
 40
5.629254675
 40
5.655321194
 40
5.681387714
 40
5.707454233
 40
5.733520752
 40
5.759587272
 40
5.759587272
 10
133.637410172
 20
41.952609227
 30
0.000000000
 10
133.637410172
 20
41.294118796
 30
0.000000000
 10
133.637410172
 20
40.650170588
 30
0.000000000
 10
133.637410172
 20
40.021202119
 30
0.000000000
 10
133.637410172
 20
39.407640724
 30
0.000000000
 10
133.637410172
 20
38.809903274
 30
0.000000000
 10
133.637410172
 20
38.228395885
 30
0.000000000
 10
133.637410172
 20
37.663513649
 30
0.000000000
 10
133.637410172
 20
37.115640360
 30
0.000000000
 10
133.637410172
 20
36.585148257
 30
0.000000000
 10
133.637410172
 20
36.072397770
 30
0.000000000
 10
133.637410172
 20
35.577737274
 30
0.000000000
 10
133.637410172
 20
35.101502854
 30
0.000000000
 10
133.637410172
 20
34.644018076
 30
0.000000000
 10
133.637410172
 20
34.205593765
 30
0.000000000
  0
LINE
  5
A56
330
A02
100
AcDbEntity
  8
ProjItem001
100
AcDbLine
 10
108.637410172
 20
44.411770527
 30
0.000000000
 11
108.637410172
 21
41.952609227
 31
0.000000000
  0
LINE
  5
A57
330
A02
100
AcDbEntity
  8
ProjItem001
100
AcDbLine
 10
133.637410172
 20
44.411770527
 30
0.000000000
 11
133.637410172
 21
41.952609227
 31
0.000000000
  0
LINE
  5
A58
330
A02
100
AcDbEntity
  8
ProjItem001
100
AcDbLine
 10
108.637410172
 20
77.197846870
 30
0.000000000
 11
133.637410172
 21
77.197846870
 31
0.000000000
  0
LINE
  5
A59
330
A02
100
AcDbEntity
  8
ProjItem001
100
AcDbLine
 10
108.637410172
 20
79.147841727
 30
0.000000000
 11
133.637410172
 21
79.147841727
 31
0.000000000
  0
LINE
  5
A5A
330
A02
100
AcDbEntity
  8
ProjItem001
100
AcDbLine
 10
108.637410172
 20
77.197846870
 30
0.000000000
 11
108.637410172
 21
79.147841727
 31
0.000000000
  0
LINE
  5
A5B
330
A02
100
AcDbEntity
  8
ProjItem001
100
AcDbLine
 10
133.637410172
 20
77.197846870
 30
0.000000000
 11
133.637410172
 21
79.147841727
 31
0.000000000
  0
LINE
  5
A5C
330
A02
100
AcDbEntity
  8
ProjItem001
100
AcDbLine
 10
108.637410172
 20
88.233027875
 30
0.000000000
 11
133.637410172
 21
88.233027875
 31
0.000000000
  0
SPLINE
  5
A5D
330
A02
100
AcDbEntity
  8
ProjItem001
100
AcDbSpline
210
0
220
0
230
1
 70
8
 71
1
 72
17
 73
15
 74
0
 40
3.823859293
 40
3.823859293
 40
3.849925786
 40
3.875992280
 40
3.902058774
 40
3.928125268
 40
3.954191761
 40
3.980258255
 40
4.006324749
 40
4.032391242
 40
4.058457736
 40
4.084524230
 40
4.110590724
 40
4.136657217
 40
4.162723711
 40
4.188790205
 40
4.188790205
 10
108.637410172
 20
88.233027875
 30
0.000000000
 10
108.637410172
 20
87.683659286
 30
0.000000000
 10
108.637410172
 20
87.117314743
 30
0.000000000
 10
108.637410172
 20
86.534379033
 30
0.000000000
 10
108.637410172
 20
85.935248216
 30
0.000000000
 10
108.637410172
 20
85.320329356
 30
0.000000000
 10
108.637410172
 20
84.690040244
 30
0.000000000
 10
108.637410172
 20
84.044809113
 30
0.000000000
 10
108.637410172
 20
83.385074347
 30
0.000000000
 10
108.637410172
 20
82.711284188
 30
0.000000000
 10
108.637410172
 20
82.023896422
 30
0.000000000
 10
108.637410172
 20
81.323378079
 30
0.000000000
 10
108.637410172
 20
80.610205106
 30
0.000000000
 10
108.637410172
 20
79.884862050
 30
0.000000000
 10
108.637410172
 20
79.147841727
 30
0.000000000
  0
SPLINE
  5
A5E
330
A02
100
AcDbEntity
  8
ProjItem001
100
AcDbSpline
210
0
220
0
230
1
 70
8
 71
1
 72
17
 73
15
 74
0
 40
3.823859293
 40
3.823859293
 40
3.849925786
 40
3.875992280
 40
3.902058774
 40
3.928125268
 40
3.954191761
 40
3.980258255
 40
4.006324749
 40
4.032391242
 40
4.058457736
 40
4.084524230
 40
4.110590724
 40
4.136657217
 40
4.162723711
 40
4.188790205
 40
4.188790205
 10
133.637410172
 20
88.233027875
 30
0.000000000
 10
133.637410172
 20
87.683659286
 30
0.000000000
 10
133.637410172
 20
87.117314743
 30
0.000000000
 10
133.637410172
 20
86.534379033
 30
0.000000000
 10
133.637410172
 20
85.935248216
 30
0.000000000
 10
133.637410172
 20
85.320329356
 30
0.000000000
 10
133.637410172
 20
84.690040244
 30
0.000000000
 10
133.637410172
 20
84.044809113
 30
0.000000000
 10
133.637410172
 20
83.385074347
 30
0.000000000
 10
133.637410172
 20
82.711284188
 30
0.000000000
 10
133.637410172
 20
82.023896422
 30
0.000000000
 10
133.637410172
 20
81.323378079
 30
0.000000000
 10
133.637410172
 20
80.610205106
 30
0.000000000
 10
133.637410172
 20
79.884862050
 30
0.000000000
 10
133.637410172
 20
79.147841727
 30
0.000000000
  0
LINE
  5
A5F
330
A02
100
AcDbEntity
  8
ProjItem001
100
AcDbLine
 10
116.887410172
 20
77.197839155
 30
0.000000000
 11
133.637410172
 21
77.197839155
 31
0.000000000
  0
SPLINE
  5
A60
330
A02
100
AcDbEntity
  8
ProjItem001
100
AcDbSpline
210
0
220
0
230
1
 70
8
 71
2
 72
6
 73
3
 74
0
 40
1.987643584
 40
1.987643584
 40
1.987643584
 40
2.094395029
 40
2.094395029
 40
2.094395029
 10
133.637410172
 20
74.439352330
 30
0.000000000
 10
133.637410172
 20
75.855854930
 30
0.000000000
 10
133.637410172
 20
77.197839155
 30
0.000000000
  0
LINE
  5
A61
330
A02
100
AcDbEntity
  8
ProjItem001
100
AcDbLine
 10
133.637410172
 20
77.197839155
 30
0.000000000
 11
133.637410172
 21
77.197846870
 31
0.000000000
  0
LINE
  5
A62
330
A02
100
AcDbEntity
  8
ProjItem001
100
AcDbLine
 10
108.637410172
 20
58.115758727
 30
0.000000000
 11
133.637410172
 21
58.115758727
 31
0.000000000
  0
LINE
  5
A63
330
A02
100
AcDbEntity
  8
ProjItem001
100
AcDbLine
 10
108.637410172
 20
46.247841727
 30
0.000000000
 11
133.637410172
 21
46.247841727
 31
0.000000000
  0
LINE
  5
A64
330
A02
100
AcDbEntity
  8
ProjItem001
100
AcDbLine
 10
108.637410172
 20
57.499539793
 30
0.000000000
 11
133.637410172
 21
57.499539793
 31
0.000000000
  0
SPLINE
  5
A65
330
A02
100
AcDbEntity
  8
ProjItem001
100
AcDbSpline
210
0
220
0
230
1
 70
8
 71
3
 72
29
 73
25
 74
0
 40
4.871057000
 40
4.871057000
 40
4.871057000
 40
4.871057000
 40
5.053522378
 40
5.053522378
 40
5.053522378
 40
5.079588861
 40
5.079588861
 40
5.079588861
 40
5.105655343
 40
5.105655343
 40
5.105655343
 40
5.131721826
 40
5.131721826
 40
5.131721826
 40
5.157788308
 40
5.157788308
 40
5.157788308
 40
5.183854791
 40
5.183854791
 40
5.183854791
 40
5.209921273
 40
5.209921273
 40
5.209921273
 40
5.235987756
 40
5.235987756
 40
5.235987756
 40
5.235987756
 10
108.637410172
 20
57.499539793
 30
0.000000000
 10
108.637410172
 20
55.523976335
 30
0.000000000
 10
108.637410172
 20
53.577812863
 30
0.000000000
 10
108.637410172
 20
51.690969277
 30
0.000000000
 10
108.637410172
 20
51.422856256
 30
0.000000000
 10
108.637410172
 20
51.154743235
 30
0.000000000
 10
108.637410172
 20
50.886630214
 30
0.000000000
 10
108.637410172
 20
50.621192129
 30
0.000000000
 10
108.637410172
 20
50.355754045
 30
0.000000000
 10
108.637410172
 20
50.090315960
 30
0.000000000
 10
108.637410172
 20
49.827733156
 30
0.000000000
 10
108.637410172
 20
49.565150353
 30
0.000000000
 10
108.637410172
 20
49.302567549
 30
0.000000000
 10
108.637410172
 20
49.043018432
 30
0.000000000
 10
108.637410172
 20
48.783469314
 30
0.000000000
 10
108.637410172
 20
48.523920197
 30
0.000000000
 10
108.637410172
 20
48.267581109
 30
0.000000000
 10
108.637410172
 20
48.011242021
 30
0.000000000
 10
108.637410172
 20
47.754902933
 30
0.000000000
 10
108.637410172
 20
47.501948038
 30
0.000000000
 10
108.637410172
 20
47.248993142
 30
0.000000000
 10
108.637410172
 20
46.996038246
 30
0.000000000
 10
108.637410172
 20
46.746639406
 30
0.000000000
 10
108.637410172
 20
46.497240567
 30
0.000000000
 10
108.637410172
 20
46.247841727
 30
0.000000000
  0
SPLINE
  5
A66
330
A02
100
AcDbEntity
  8
ProjItem001
100
AcDbSpline
210
0
220
0
230
1
 70
8
 71
3
 72
29
 73
25
 74
0
 40
4.871057000
 40
4.871057000
 40
4.871057000
 40
4.871057000
 40
5.053522378
 40
5.053522378
 40
5.053522378
 40
5.079588861
 40
5.079588861
 40
5.079588861
 40
5.105655343
 40
5.105655343
 40
5.105655343
 40
5.131721826
 40
5.131721826
 40
5.131721826
 40
5.157788308
 40
5.157788308
 40
5.157788308
 40
5.183854791
 40
5.183854791
 40
5.183854791
 40
5.209921273
 40
5.209921273
 40
5.209921273
 40
5.235987756
 40
5.235987756
 40
5.235987756
 40
5.235987756
 10
133.637410172
 20
57.499539793
 30
0.000000000
 10
133.637410172
 20
55.523976335
 30
0.000000000
 10
133.637410172
 20
53.577812863
 30
0.000000000
 10
133.637410172
 20
51.690969277
 30
0.000000000
 10
133.637410172
 20
51.422856256
 30
0.000000000
 10
133.637410172
 20
51.154743235
 30
0.000000000
 10
133.637410172
 20
50.886630214
 30
0.000000000
 10
133.637410172
 20
50.621192129
 30
0.000000000
 10
133.637410172
 20
50.355754045
 30
0.000000000
 10
133.637410172
 20
50.090315960
 30
0.000000000
 10
133.637410172
 20
49.827733156
 30
0.000000000
 10
133.637410172
 20
49.565150353
 30
0.000000000
 10
133.637410172
 20
49.302567549
 30
0.000000000
 10
133.637410172
 20
49.043018432
 30
0.000000000
 10
133.637410172
 20
48.783469314
 30
0.000000000
 10
133.637410172
 20
48.523920197
 30
0.000000000
 10
133.637410172
 20
48.267581109
 30
0.000000000
 10
133.637410172
 20
48.011242021
 30
0.000000000
 10
133.637410172
 20
47.754902933
 30
0.000000000
 10
133.637410172
 20
47.501948038
 30
0.000000000
 10
133.637410172
 20
47.248993142
 30
0.000000000
 10
133.637410172
 20
46.996038246
 30
0.000000000
 10
133.637410172
 20
46.746639406
 30
0.000000000
 10
133.637410172
 20
46.497240567
 30
0.000000000
 10
133.637410172
 20
46.247841727
 30
0.000000000
  0
LINE
  5
A67
330
A02
100
AcDbEntity
  8
ProjItem001
100
AcDbLine
 10
108.637410172
 20
58.115758727
 30
0.000000000
 11
108.637410172
 21
57.499539793
 31
0.000000000
  0
LINE
  5
A68
330
A02
100
AcDbEntity
  8
ProjItem001
100
AcDbLine
 10
133.637410172
 20
58.115758727
 30
0.000000000
 11
133.637410172
 21
57.499539793
 31
0.000000000
  0
LINE
  5
A69
330
A02
100
AcDbEntity
  8
ProjItem001
100
AcDbLine
 10
108.637410172
 20
91.190082083
 30
0.000000000
 11
133.637410172
 21
91.190082083
 31
0.000000000
  0
LINE
  5
A6A
330
A02
100
AcDbEntity
  8
ProjItem001
100
AcDbLine
 10
108.637410172
 20
88.233027875
 30
0.000000000
 11
108.637410172
 21
91.190082083
 31
0.000000000
  0
LINE
  5
A6B
330
A02
100
AcDbEntity
  8
ProjItem001
100
AcDbLine
 10
133.637410172
 20
88.233027875
 30
0.000000000
 11
133.637410172
 21
91.190082083
 31
0.000000000
  0
LINE
  5
A6C
330
A02
100
AcDbEntity
  8
ProjItem001
100
AcDbLine
 10
108.637410172
 20
95.184570504
 30
0.000000000
 11
133.637410172
 21
95.184570504
 31
0.000000000
  0
SPLINE
  5
A6D
330
A02
100
AcDbEntity
  8
ProjItem001
100
AcDbSpline
210
0
220
0
230
1
 70
8
 71
1
 72
17
 73
15
 74
0
 40
3.300260521
 40
3.300260521
 40
3.326326984
 40
3.352393447
 40
3.378459910
 40
3.404526372
 40
3.430592835
 40
3.456659298
 40
3.482725761
 40
3.508792223
 40
3.534858686
 40
3.560925149
 40
3.586991612
 40
3.613058074
 40
3.639124537
 40
3.665191000
 40
3.665191000
 10
108.637410172
 20
95.184570504
 30
0.000000000
 10
108.637410172
 20
95.038048532
 30
0.000000000
 10
108.637410172
 20
94.869553911
 30
0.000000000
 10
108.637410172
 20
94.679201119
 30
0.000000000
 10
108.637410172
 20
94.467119486
 30
0.000000000
 10
108.637410172
 20
94.233453104
 30
0.000000000
 10
108.637410172
 20
93.978360732
 30
0.000000000
 10
108.637410172
 20
93.702015686
 30
0.000000000
 10
108.637410172
 20
93.404605719
 30
0.000000000
 10
108.637410172
 20
93.086332900
 30
0.000000000
 10
108.637410172
 20
92.747413469
 30
0.000000000
 10
108.637410172
 20
92.388077696
 30
0.000000000
 10
108.637410172
 20
92.008569722
 30
0.000000000
 10
108.637410172
 20
91.609147392
 30
0.000000000
 10
108.637410172
 20
91.190082083
 30
0.000000000
  0
SPLINE
  5
A6E
330
A02
100
AcDbEntity
  8
ProjItem001
100
AcDbSpline
210
0
220
0
230
1
 70
8
 71
1
 72
17
 73
15
 74
0
 40
3.300260521
 40
3.300260521
 40
3.326326984
 40
3.352393447
 40
3.378459910
 40
3.404526372
 40
3.430592835
 40
3.456659298
 40
3.482725761
 40
3.508792223
 40
3.534858686
 40
3.560925149
 40
3.586991612
 40
3.613058074
 40
3.639124537
 40
3.665191000
 40
3.665191000
 10
133.637410172
 20
95.184570504
 30
0.000000000
 10
133.637410172
 20
95.038048532
 30
0.000000000
 10
133.637410172
 20
94.869553911
 30
0.000000000
 10
133.637410172
 20
94.679201119
 30
0.000000000
 10
133.637410172
 20
94.467119486
 30
0.000000000
 10
133.637410172
 20
94.233453104
 30
0.000000000
 10
133.637410172
 20
93.978360732
 30
0.000000000
 10
133.637410172
 20
93.702015686
 30
0.000000000
 10
133.637410172
 20
93.404605719
 30
0.000000000
 10
133.637410172
 20
93.086332900
 30
0.000000000
 10
133.637410172
 20
92.747413469
 30
0.000000000
 10
133.637410172
 20
92.388077696
 30
0.000000000
 10
133.637410172
 20
92.008569722
 30
0.000000000
 10
133.637410172
 20
91.609147392
 30
0.000000000
 10
133.637410172
 20
91.190082083
 30
0.000000000
  0
LINE
  5
A6F
330
A02
100
AcDbEntity
  8
ProjItem001
100
AcDbLine
 10
108.637410172
 20
62.697841081
 30
0.000000000
 11
133.637410172
 21
62.697841081
 31
0.000000000
  0
LINE
  5
A70
330
A02
100
AcDbEntity
  8
ProjItem001
100
AcDbLine
 10
108.637410172
 20
74.439352330
 30
0.000000000
 11
133.637410172
 21
74.439352330
 31
0.000000000
  0
SPLINE
  5
A71
330
A02
100
AcDbEntity
  8
ProjItem001
100
AcDbSpline
210
0
220
0
230
1
 70
8
 71
3
 72
8
 73
4
 74
0
 40
4.347458000
 40
4.347458000
 40
4.347458000
 40
4.347458000
 40
4.712389000
 40
4.712389000
 40
4.712389000
 40
4.712389000
 10
108.637410172
 20
74.439352330
 30
0.000000000
 10
108.637410172
 20
70.699777167
 30
0.000000000
 10
108.637410172
 20
66.700426727
 30
0.000000000
 10
108.637410172
 20
62.697841081
 30
0.000000000
  0
SPLINE
  5
A72
330
A02
100
AcDbEntity
  8
ProjItem001
100
AcDbSpline
210
0
220
0
230
1
 70
8
 71
3
 72
8
 73
4
 74
0
 40
4.347458000
 40
4.347458000
 40
4.347458000
 40
4.347458000
 40
4.712389000
 40
4.712389000
 40
4.712389000
 40
4.712389000
 10
133.637410172
 20
74.439352330
 30
0.000000000
 10
133.637410172
 20
70.699777167
 30
0.000000000
 10
133.637410172
 20
66.700426727
 30
0.000000000
 10
133.637410172
 20
62.697841081
 30
0.000000000
  0
LINE
  5
A73
330
A02
100
AcDbEntity
  8
ProjItem001
100
AcDbLine
 10
108.637410172
 20
31.964358494
 30
0.000000000
 11
133.637410172
 21
31.964358494
 31
0.000000000
  0
LINE
  5
A74
330
A02
100
AcDbEntity
  8
ProjItem001
100
AcDbLine
 10
108.637410172
 20
34.205593765
 30
0.000000000
 11
108.637410172
 21
31.964358494
 31
0.000000000
  0
LINE
  5
A75
330
A02
100
AcDbEntity
  8
ProjItem001
100
AcDbLine
 10
133.637410172
 20
34.205593765
 30
0.000000000
 11
133.637410172
 21
31.964358494
 31
0.000000000
  0
LINE
  5
A76
330
A02
100
AcDbEntity
  8
ProjItem001
100
AcDbLine
 10
108.637410172
 20
29.797841727
 30
0.000000000
 11
133.637410172
 21
29.797841727
 31
0.000000000
  0
SPLINE
  5
A77
330
A02
100
AcDbEntity
  8
ProjItem001
100
AcDbSpline
210
0
220
0
230
1
 70
8
 71
1
 72
17
 73
15
 74
0
 40
5.918254414
 40
5.918254414
 40
5.944320906
 40
5.970387399
 40
5.996453891
 40
6.022520383
 40
6.048586876
 40
6.074653368
 40
6.100719861
 40
6.126786353
 40
6.152852845
 40
6.178919338
 40
6.204985830
 40
6.231052322
 40
6.257118815
 40
6.283185307
 40
6.283185307
 10
108.637410172
 20
31.964358494
 30
0.000000000
 10
108.637410172
 20
31.668773752
 30
0.000000000
 10
108.637410172
 20
31.394270889
 30
0.000000000
 10
108.637410172
 20
31.141036409
 30
0.000000000
 10
108.637410172
 20
30.909242366
 30
0.000000000
 10
108.637410172
 20
30.699046247
 30
0.000000000
 10
108.637410172
 20
30.510590862
 30
0.000000000
 10
108.637410172
 20
30.344004254
 30
0.000000000
 10
108.637410172
 20
30.199399606
 30
0.000000000
 10
108.637410172
 20
30.076875164
 30
0.000000000
 10
108.637410172
 20
29.976514175
 30
0.000000000
 10
108.637410172
 20
29.898384827
 30
0.000000000
 10
108.637410172
 20
29.842540203
 30
0.000000000
 10
108.637410172
 20
29.809018244
 30
0.000000000
 10
108.637410172
 20
29.797841727
 30
0.000000000
  0
SPLINE
  5
A78
330
A02
100
AcDbEntity
  8
ProjItem001
100
AcDbSpline
210
0
220
0
230
1
 70
8
 71
1
 72
17
 73
15
 74
0
 40
5.918254414
 40
5.918254414
 40
5.944320906
 40
5.970387399
 40
5.996453891
 40
6.022520383
 40
6.048586876
 40
6.074653368
 40
6.100719861
 40
6.126786353
 40
6.152852845
 40
6.178919338
 40
6.204985830
 40
6.231052322
 40
6.257118815
 40
6.283185307
 40
6.283185307
 10
133.637410172
 20
31.964358494
 30
0.000000000
 10
133.637410172
 20
31.668773752
 30
0.000000000
 10
133.637410172
 20
31.394270889
 30
0.000000000
 10
133.637410172
 20
31.141036409
 30
0.000000000
 10
133.637410172
 20
30.909242366
 30
0.000000000
 10
133.637410172
 20
30.699046247
 30
0.000000000
 10
133.637410172
 20
30.510590862
 30
0.000000000
 10
133.637410172
 20
30.344004254
 30
0.000000000
 10
133.637410172
 20
30.199399606
 30
0.000000000
 10
133.637410172
 20
30.076875164
 30
0.000000000
 10
133.637410172
 20
29.976514175
 30
0.000000000
 10
133.637410172
 20
29.898384827
 30
0.000000000
 10
133.637410172
 20
29.842540203
 30
0.000000000
 10
133.637410172
 20
29.809018244
 30
0.000000000
 10
133.637410172
 20
29.797841727
 30
0.000000000
  0
LINE
  5
A79
330
A02
100
AcDbEntity
  8
ProjItem001
100
AcDbLine
 10
108.637410172
 20
95.597841727
 30
0.000000000
 11
133.637410172
 21
95.597841727
 31
0.000000000
  0
LINE
  5
A7A
330
A02
100
AcDbEntity
  8
ProjItem001
100
AcDbLine
 10
108.637410172
 20
95.184570504
 30
0.000000000
 11
108.637410172
 21
95.597841727
 31
0.000000000
  0
LINE
  5
A7B
330
A02
100
AcDbEntity
  8
ProjItem001
100
AcDbLine
 10
133.637410172
 20
95.184570504
 30
0.000000000
 11
133.637410172
 21
95.597841727
 31
0.000000000
  0
LINE
  5
A7C
330
A02
100
AcDbEntity
  8
ProjItem001
100
AcDbLine
 10
116.887410172
 20
62.697832250
 30
0.000000000
 11
133.637410172
 21
62.697832250
 31
0.000000000
  0
SPLINE
  5
A7D
330
A02
100
AcDbEntity
  8
ProjItem001
100
AcDbSpline
210
0
220
0
230
1
 70
8
 71
2
 72
6
 73
3
 74
0
 40
1.412128528
 40
1.412128528
 40
1.412128528
 40
1.570796000
 40
1.570796000
 40
1.570796000
 10
133.637410172
 20
58.115758727
 30
0.000000000
 10
133.637410172
 20
60.392402749
 30
0.000000000
 10
133.637410172
 20
62.697832250
 30
0.000000000
  0
LINE
  5
A7E
330
A02
100
AcDbEntity
  8
SectionView
100
AcDbLine
 10
26.737410082
 20
127.594892319
 30
0.000000000
 11
26.737410082
 21
119.344892319
 31
0.000000000
  0
LINE
  5
A7F
330
A02
100
AcDbEntity
  8
SectionView
100
AcDbLine
 10
84.737410082
 20
127.594892319
 30
0.000000000
 11
84.737410082
 21
119.344892319
 31
0.000000000
  0
LINE
  5
A80
330
A02
100
AcDbEntity
  8
SectionView
100
AcDbLine
 10
68.737410082
 20
119.344892319
 30
0.000000000
 11
84.737410082
 21
119.344892319
 31
0.000000000
  0
SPLINE
  5
A81
330
A02
100
AcDbEntity
  8
SectionView
100
AcDbSpline
210
0
220
0
230
1
 70
8
 71
1
 72
17
 73
15
 74
0
 40
1.570796327
 40
1.570796327
 40
1.795195802
 40
2.019595277
 40
2.243994753
 40
2.468394228
 40
2.692793703
 40
2.917193178
 40
3.141592654
 40
3.365992129
 40
3.590391604
 40
3.814791079
 40
4.039190555
 40
4.263590030
 40
4.487989505
 40
4.712388980
 40
4.712388980
 10
68.737410082
 20
119.344892319
 30
0.000000000
 10
68.699801950
 20
119.344892319
 30
0.000000000
 10
68.588863384
 20
119.344892319
 30
0.000000000
 10
68.410157306
 20
119.344892319
 30
0.000000000
 10
68.172644785
 20
119.344892319
 30
0.000000000
 10
67.888235691
 20
119.344892319
 30
0.000000000
 10
67.571191483
 20
119.344892319
 30
0.000000000
 10
67.237410082
 20
119.344892319
 30
0.000000000
 10
66.903628681
 20
119.344892319
 30
0.000000000
 10
66.586584473
 20
119.344892319
 30
0.000000000
 10
66.302175379
 20
119.344892319
 30
0.000000000
 10
66.064662858
 20
119.344892319
 30
0.000000000
 10
65.885956780
 20
119.344892319
 30
0.000000000
 10
65.775018214
 20
119.344892319
 30
0.000000000
 10
65.737410082
 20
119.344892319
 30
0.000000000
  0
LINE
  5
A82
330
A02
100
AcDbEntity
  8
SectionView
100
AcDbLine
 10
57.237410082
 20
119.344892319
 30
0.000000000
 11
65.737410082
 21
119.344892319
 31
0.000000000
  0
SPLINE
  5
A83
330
A02
100
AcDbEntity
  8
SectionView
100
AcDbSpline
210
0
220
0
230
1
 70
8
 71
1
 72
17
 73
15
 74
0
 40
1.570796327
 40
1.570796327
 40
1.795195802
 40
2.019595277
 40
2.243994753
 40
2.468394228
 40
2.692793703
 40
2.917193178
 40
3.141592654
 40
3.365992129
 40
3.590391604
 40
3.814791079
 40
4.039190555
 40
4.263590030
 40
4.487989505
 40
4.712388980
 40
4.712388980
 10
57.237410082
 20
119.344892319
 30
0.000000000
 10
57.199801950
 20
119.344892319
 30
0.000000000
 10
57.088863384
 20
119.344892319
 30
0.000000000
 10
56.910157306
 20
119.344892319
 30
0.000000000
 10
56.672644785
 20
119.344892319
 30
0.000000000
 10
56.388235691
 20
119.344892319
 30
0.000000000
 10
56.071191483
 20
119.344892319
 30
0.000000000
 10
55.737410082
 20
119.344892319
 30
0.000000000
 10
55.403628681
 20
119.344892319
 30
0.000000000
 10
55.086584473
 20
119.344892319
 30
0.000000000
 10
54.802175379
 20
119.344892319
 30
0.000000000
 10
54.564662858
 20
119.344892319
 30
0.000000000
 10
54.385956780
 20
119.344892319
 30
0.000000000
 10
54.275018214
 20
119.344892319
 30
0.000000000
 10
54.237410082
 20
119.344892319
 30
0.000000000
  0
LINE
  5
A84
330
A02
100
AcDbEntity
  8
SectionView
100
AcDbLine
 10
45.737410082
 20
119.344892319
 30
0.000000000
 11
54.237410082
 21
119.344892319
 31
0.000000000
  0
SPLINE
  5
A85
330
A02
100
AcDbEntity
  8
SectionView
100
AcDbSpline
210
0
220
0
230
1
 70
8
 71
1
 72
17
 73
15
 74
0
 40
1.570796327
 40
1.570796327
 40
1.795195802
 40
2.019595277
 40
2.243994753
 40
2.468394228
 40
2.692793703
 40
2.917193178
 40
3.141592654
 40
3.365992129
 40
3.590391604
 40
3.814791079
 40
4.039190555
 40
4.263590030
 40
4.487989505
 40
4.712388980
 40
4.712388980
 10
45.737410082
 20
119.344892319
 30
0.000000000
 10
45.699801950
 20
119.344892319
 30
0.000000000
 10
45.588863384
 20
119.344892319
 30
0.000000000
 10
45.410157306
 20
119.344892319
 30
0.000000000
 10
45.172644785
 20
119.344892319
 30
0.000000000
 10
44.888235691
 20
119.344892319
 30
0.000000000
 10
44.571191483
 20
119.344892319
 30
0.000000000
 10
44.237410082
 20
119.344892319
 30
0.000000000
 10
43.903628681
 20
119.344892319
 30
0.000000000
 10
43.586584473
 20
119.344892319
 30
0.000000000
 10
43.302175379
 20
119.344892319
 30
0.000000000
 10
43.064662858
 20
119.344892319
 30
0.000000000
 10
42.885956780
 20
119.344892319
 30
0.000000000
 10
42.775018214
 20
119.344892319
 30
0.000000000
 10
42.737410082
 20
119.344892319
 30
0.000000000
  0
LINE
  5
A86
330
A02
100
AcDbEntity
  8
SectionView
100
AcDbLine
 10
26.737410082
 20
119.344892319
 30
0.000000000
 11
42.737410082
 21
119.344892319
 31
0.000000000
  0
LINE
  5
A87
330
A02
100
AcDbEntity
  8
SectionView
100
AcDbLine
 10
26.737410082
 20
127.594892319
 30
0.000000000
 11
42.737410082
 21
127.594892319
 31
0.000000000
  0
LINE
  5
A88
330
A02
100
AcDbEntity
  8
SectionView
100
AcDbLine
 10
42.737410082
 20
127.594892319
 30
0.000000000
 11
42.737410082
 21
119.344892319
 31
0.000000000
  0
LINE
  5
A89
330
A02
100
AcDbEntity
  8
SectionView
100
AcDbLine
 10
68.737410082
 20
127.594892319
 30
0.000000000
 11
84.737410082
 21
127.594892319
 31
0.000000000
  0
SPLINE
  5
A8A
330
A02
100
AcDbEntity
  8
SectionView
100
AcDbSpline
210
0
220
0
230
1
 70
8
 71
1
 72
17
 73
15
 74
0
 40
1.570796327
 40
1.570796327
 40
1.795195802
 40
2.019595277
 40
2.243994753
 40
2.468394228
 40
2.692793703
 40
2.917193178
 40
3.141592654
 40
3.365992129
 40
3.590391604
 40
3.814791079
 40
4.039190555
 40
4.263590030
 40
4.487989505
 40
4.712388980
 40
4.712388980
 10
68.737410082
 20
127.594892319
 30
0.000000000
 10
68.699801950
 20
127.594892319
 30
0.000000000
 10
68.588863384
 20
127.594892319
 30
0.000000000
 10
68.410157306
 20
127.594892319
 30
0.000000000
 10
68.172644785
 20
127.594892319
 30
0.000000000
 10
67.888235691
 20
127.594892319
 30
0.000000000
 10
67.571191483
 20
127.594892319
 30
0.000000000
 10
67.237410082
 20
127.594892319
 30
0.000000000
 10
66.903628681
 20
127.594892319
 30
0.000000000
 10
66.586584473
 20
127.594892319
 30
0.000000000
 10
66.302175379
 20
127.594892319
 30
0.000000000
 10
66.064662858
 20
127.594892319
 30
0.000000000
 10
65.885956780
 20
127.594892319
 30
0.000000000
 10
65.775018214
 20
127.594892319
 30
0.000000000
 10
65.737410082
 20
127.594892319
 30
0.000000000
  0
LINE
  5
A8B
330
A02
100
AcDbEntity
  8
SectionView
100
AcDbLine
 10
57.237410082
 20
127.594892319
 30
0.000000000
 11
65.737410082
 21
127.594892319
 31
0.000000000
  0
SPLINE
  5
A8C
330
A02
100
AcDbEntity
  8
SectionView
100
AcDbSpline
210
0
220
0
230
1
 70
8
 71
1
 72
17
 73
15
 74
0
 40
1.570796327
 40
1.570796327
 40
1.795195802
 40
2.019595277
 40
2.243994753
 40
2.468394228
 40
2.692793703
 40
2.917193178
 40
3.141592654
 40
3.365992129
 40
3.590391604
 40
3.814791079
 40
4.039190555
 40
4.263590030
 40
4.487989505
 40
4.712388980
 40
4.712388980
 10
57.237410082
 20
127.594892319
 30
0.000000000
 10
57.199801950
 20
127.594892319
 30
0.000000000
 10
57.088863384
 20
127.594892319
 30
0.000000000
 10
56.910157306
 20
127.594892319
 30
0.000000000
 10
56.672644785
 20
127.594892319
 30
0.000000000
 10
56.388235691
 20
127.594892319
 30
0.000000000
 10
56.071191483
 20
127.594892319
 30
0.000000000
 10
55.737410082
 20
127.594892319
 30
0.000000000
 10
55.403628681
 20
127.594892319
 30
0.000000000
 10
55.086584473
 20
127.594892319
 30
0.000000000
 10
54.802175379
 20
127.594892319
 30
0.000000000
 10
54.564662858
 20
127.594892319
 30
0.000000000
 10
54.385956780
 20
127.594892319
 30
0.000000000
 10
54.275018214
 20
127.594892319
 30
0.000000000
 10
54.237410082
 20
127.594892319
 30
0.000000000
  0
LINE
  5
A8D
330
A02
100
AcDbEntity
  8
SectionView
100
AcDbLine
 10
45.737410082
 20
127.594892319
 30
0.000000000
 11
54.237410082
 21
127.594892319
 31
0.000000000
  0
SPLINE
  5
A8E
330
A02
100
AcDbEntity
  8
SectionView
100
AcDbSpline
210
0
220
0
230
1
 70
8
 71
1
 72
17
 73
15
 74
0
 40
1.570796327
 40
1.570796327
 40
1.795195802
 40
2.019595277
 40
2.243994753
 40
2.468394228
 40
2.692793703
 40
2.917193178
 40
3.141592654
 40
3.365992129
 40
3.590391604
 40
3.814791079
 40
4.039190555
 40
4.263590030
 40
4.487989505
 40
4.712388980
 40
4.712388980
 10
45.737410082
 20
127.594892319
 30
0.000000000
 10
45.699801950
 20
127.594892319
 30
0.000000000
 10
45.588863384
 20
127.594892319
 30
0.000000000
 10
45.410157306
 20
127.594892319
 30
0.000000000
 10
45.172644785
 20
127.594892319
 30
0.000000000
 10
44.888235691
 20
127.594892319
 30
0.000000000
 10
44.571191483
 20
127.594892319
 30
0.000000000
 10
44.237410082
 20
127.594892319
 30
0.000000000
 10
43.903628681
 20
127.594892319
 30
0.000000000
 10
43.586584473
 20
127.594892319
 30
0.000000000
 10
43.302175379
 20
127.594892319
 30
0.000000000
 10
43.064662858
 20
127.594892319
 30
0.000000000
 10
42.885956780
 20
127.594892319
 30
0.000000000
 10
42.775018214
 20
127.594892319
 30
0.000000000
 10
42.737410082
 20
127.594892319
 30
0.000000000
  0
LINE
  5
A8F
330
A02
100
AcDbEntity
  8
SectionView
100
AcDbLine
 10
68.737410082
 20
127.594892319
 30
0.000000000
 11
68.737410082
 21
119.344892319
 31
0.000000000
  0
LINE
  5
A90
330
A02
100
AcDbEntity
  8
SectionView
100
AcDbLine
 10
65.737410082
 20
127.594892319
 30
0.000000000
 11
65.737410082
 21
119.344892319
 31
0.000000000
  0
LINE
  5
A91
330
A02
100
AcDbEntity
  8
SectionView
100
AcDbLine
 10
57.237410082
 20
127.594892319
 30
0.000000000
 11
57.237410082
 21
119.344892319
 31
0.000000000
  0
LINE
  5
A92
330
A02
100
AcDbEntity
  8
SectionView
100
AcDbLine
 10
54.237410082
 20
127.594892319
 30
0.000000000
 11
54.237410082
 21
119.344892319
 31
0.000000000
  0
LINE
  5
A93
330
A02
100
AcDbEntity
  8
SectionView
100
AcDbLine
 10
45.737410082
 20
127.594892319
 30
0.000000000
 11
45.737410082
 21
119.344892319
 31
0.000000000
  0
LINE
  5
A94
330
A02
100
AcDbEntity
  8
SectionView
100
AcDbLine
 10
78.245630082
 20
127.594892319
 30
0.000000000
 11
78.245630082
 21
144.344892319
 31
0.000000000
  0
LINE
  5
A95
330
A02
100
AcDbEntity
  8
SectionView
100
AcDbLine
 10
70.237410082
 20
127.594892319
 30
0.000000000
 11
70.237410082
 21
144.344892319
 31
0.000000000
  0
SPLINE
  5
A96
330
A02
100
AcDbEntity
  8
SectionView
100
AcDbSpline
210
0
220
0
230
1
 70
8
 71
1
 72
17
 73
15
 74
0
 40
2.253062890
 40
2.253062890
 40
2.279129389
 40
2.305195888
 40
2.331262387
 40
2.357328885
 40
2.383395384
 40
2.409461883
 40
2.435528382
 40
2.461594881
 40
2.487661379
 40
2.513727878
 40
2.539794377
 40
2.565860876
 40
2.591927375
 40
2.617993873
 40
2.617993873
 10
78.245630082
 20
144.344892319
 30
0.000000000
 10
77.761384166
 20
144.344892319
 30
0.000000000
 10
77.262174635
 20
144.344892319
 30
0.000000000
 10
76.748340665
 20
144.344892319
 30
0.000000000
 10
76.220231367
 20
144.344892319
 30
0.000000000
 10
75.678205551
 20
144.344892319
 30
0.000000000
 10
75.122631482
 20
144.344892319
 30
0.000000000
 10
74.553886631
 20
144.344892319
 30
0.000000000
 10
73.972357416
 20
144.344892319
 30
0.000000000
 10
73.378438942
 20
144.344892319
 30
0.000000000
 10
72.772534731
 20
144.344892319
 30
0.000000000
 10
72.155056450
 20
144.344892319
 30
0.000000000
 10
71.526423628
 20
144.344892319
 30
0.000000000
 10
70.887063373
 20
144.344892319
 30
0.000000000
 10
70.237410082
 20
144.344892319
 30
0.000000000
  0
LINE
  5
A97
330
A02
100
AcDbEntity
  8
SectionView
100
AcDbLine
 10
78.245630082
 20
144.344892319
 30
0.000000000
 11
80.852148277
 21
144.344892319
 31
0.000000000
  0
LINE
  5
A98
330
A02
100
AcDbEntity
  8
SectionView
100
AcDbLine
 10
37.451354035
 20
127.594892319
 30
0.000000000
 11
37.451354035
 21
144.344892319
 31
0.000000000
  0
LINE
  5
A99
330
A02
100
AcDbEntity
  8
SectionView
100
AcDbLine
 10
30.622676283
 20
127.594892319
 30
0.000000000
 11
30.622676283
 21
144.344892319
 31
0.000000000
  0
SPLINE
  5
A9A
330
A02
100
AcDbEntity
  8
SectionView
100
AcDbSpline
210
0
220
0
230
1
 70
8
 71
1
 72
17
 73
15
 74
0
 40
3.823858994
 40
3.823858994
 40
3.849925494
 40
3.875991995
 40
3.902058495
 40
3.928124995
 40
3.954191495
 40
3.980257996
 40
4.006324496
 40
4.032390996
 40
4.058457496
 40
4.084523996
 40
4.110590497
 40
4.136656997
 40
4.162723497
 40
4.188789997
 40
4.188789997
 10
37.451354035
 20
144.344892319
 30
0.000000000
 10
36.870921836
 20
144.344892319
 30
0.000000000
 10
36.303307982
 20
144.344892319
 30
0.000000000
 10
35.748898122
 20
144.344892319
 30
0.000000000
 10
35.208068936
 20
144.344892319
 30
0.000000000
 10
34.681187876
 20
144.344892319
 30
0.000000000
 10
34.168612918
 20
144.344892319
 30
0.000000000
 10
33.670692318
 20
144.344892319
 30
0.000000000
 10
33.187764374
 20
144.344892319
 30
0.000000000
 10
32.720157200
 20
144.344892319
 30
0.000000000
 10
32.268188498
 20
144.344892319
 30
0.000000000
 10
31.832165348
 20
144.344892319
 30
0.000000000
 10
31.412383994
 20
144.344892319
 30
0.000000000
 10
31.009129646
 20
144.344892319
 30
0.000000000
 10
30.622676283
 20
144.344892319
 30
0.000000000
  0
LINE
  5
A9B
330
A02
100
AcDbEntity
  8
SectionView
100
AcDbLine
 10
30.622676283
 20
144.344892319
 30
0.000000000
 11
28.647106614
 21
144.344892319
 31
0.000000000
  0
LINE
  5
A9C
330
A02
100
AcDbEntity
  8
SectionView
100
AcDbLine
 10
84.373131749
 20
127.594892319
 30
0.000000000
 11
84.373131749
 21
144.344892319
 31
0.000000000
  0
LINE
  5
A9D
330
A02
100
AcDbEntity
  8
SectionView
100
AcDbLine
 10
80.852148277
 20
127.594892319
 30
0.000000000
 11
80.852148277
 21
144.344892319
 31
0.000000000
  0
SPLINE
  5
A9E
330
A02
100
AcDbEntity
  8
SectionView
100
AcDbSpline
210
0
220
0
230
1
 70
8
 71
1
 72
17
 73
15
 74
0
 40
1.729464008
 40
1.729464008
 40
1.755530510
 40
1.781597011
 40
1.807663513
 40
1.833730014
 40
1.859796516
 40
1.885863017
 40
1.911929519
 40
1.937996020
 40
1.964062522
 40
1.990129023
 40
2.016195525
 40
2.042262026
 40
2.068328528
 40
2.094395029
 40
2.094395029
 10
84.373131749
 20
144.344892319
 30
0.000000000
 10
84.243978582
 20
144.344892319
 30
0.000000000
 10
84.095457370
 20
144.344892319
 30
0.000000000
 10
83.927669019
 20
144.344892319
 30
0.000000000
 10
83.740727531
 20
144.344892319
 30
0.000000000
 10
83.534759917
 20
144.344892319
 30
0.000000000
 10
83.309906116
 20
144.344892319
 30
0.000000000
 10
83.066318901
 20
144.344892319
 30
0.000000000
 10
82.804163769
 20
144.344892319
 30
0.000000000
 10
82.523618835
 20
144.344892319
 30
0.000000000
 10
82.224874709
 20
144.344892319
 30
0.000000000
 10
81.908134364
 20
144.344892319
 30
0.000000000
 10
81.573613002
 20
144.344892319
 30
0.000000000
 10
81.221537903
 20
144.344892319
 30
0.000000000
 10
80.852148277
 20
144.344892319
 30
0.000000000
  0
LINE
  5
A9F
330
A02
100
AcDbEntity
  8
SectionView
100
AcDbLine
 10
88.224143032
 20
119.344892319
 30
0.000000000
 11
88.224143032
 21
144.344892319
 31
0.000000000
  0
LINE
  5
AA0
330
A02
100
AcDbEntity
  8
SectionView
100
AcDbLine
 10
84.737410082
 20
119.344892319
 30
0.000000000
 11
88.224143032
 21
119.344892319
 31
0.000000000
  0
LINE
  5
AA1
330
A02
100
AcDbEntity
  8
SectionView
100
AcDbLine
 10
84.373131749
 20
144.344892319
 30
0.000000000
 11
88.224143032
 21
144.344892319
 31
0.000000000
  0
LINE
  5
AA2
330
A02
100
AcDbEntity
  8
SectionView
100
AcDbLine
 10
51.155327082
 20
127.594892319
 30
0.000000000
 11
51.155327082
 21
144.344892319
 31
0.000000000
  0
LINE
  5
AA3
330
A02
100
AcDbEntity
  8
SectionView
100
AcDbLine
 10
41.237410082
 20
127.594892319
 30
0.000000000
 11
41.237410082
 21
144.344892319
 31
0.000000000
  0
SPLINE
  5
AA4
330
A02
100
AcDbEntity
  8
SectionView
100
AcDbSpline
210
0
220
0
230
1
 70
8
 71
3
 72
26
 73
22
 74
0
 40
3.300260421
 40
3.300260421
 40
3.300260421
 40
3.300260421
 40
3.482725901
 40
3.482725901
 40
3.482725901
 40
3.508792398
 40
3.508792398
 40
3.508792398
 40
3.560925393
 40
3.560925393
 40
3.560925393
 40
3.586991890
 40
3.586991890
 40
3.586991890
 40
3.613058387
 40
3.613058387
 40
3.613058387
 40
3.639124884
 40
3.639124884
 40
3.639124884
 40
3.665191381
 40
3.665191381
 40
3.665191381
 40
3.665191381
 10
51.155327082
 20
144.344892319
 30
0.000000000
 10
49.413947766
 20
144.344892319
 30
0.000000000
 10
47.698483324
 20
144.344892319
 30
0.000000000
 10
46.035306968
 20
144.344892319
 30
0.000000000
 10
45.798976177
 20
144.344892319
 30
0.000000000
 10
45.562645386
 20
144.344892319
 30
0.000000000
 10
45.326314594
 20
144.344892319
 30
0.000000000
 10
44.856957185
 20
144.344892319
 30
0.000000000
 10
44.391528116
 20
144.344892319
 30
0.000000000
 10
43.930027387
 20
144.344892319
 30
0.000000000
 10
43.701245332
 20
144.344892319
 30
0.000000000
 10
43.472463277
 20
144.344892319
 30
0.000000000
 10
43.243681223
 20
144.344892319
 30
0.000000000
 10
43.017728680
 20
144.344892319
 30
0.000000000
 10
42.791776138
 20
144.344892319
 30
0.000000000
 10
42.565823596
 20
144.344892319
 30
0.000000000
 10
42.342854083
 20
144.344892319
 30
0.000000000
 10
42.119884571
 20
144.344892319
 30
0.000000000
 10
41.896915058
 20
144.344892319
 30
0.000000000
 10
41.677080066
 20
144.344892319
 30
0.000000000
 10
41.457245074
 20
144.344892319
 30
0.000000000
 10
41.237410082
 20
144.344892319
 30
0.000000000
  0
LINE
  5
AA5
330
A02
100
AcDbEntity
  8
SectionView
100
AcDbLine
 10
39.287422311
 20
127.594892319
 30
0.000000000
 11
39.287422311
 21
144.344892319
 31
0.000000000
  0
LINE
  5
AA6
330
A02
100
AcDbEntity
  8
SectionView
100
AcDbLine
 10
41.237410082
 20
144.344892319
 30
0.000000000
 11
39.287422311
 21
144.344892319
 31
0.000000000
  0
LINE
  5
AA7
330
A02
100
AcDbEntity
  8
SectionView
100
AcDbLine
 10
28.647106614
 20
127.594892319
 30
0.000000000
 11
28.647106614
 21
144.344892319
 31
0.000000000
  0
LINE
  5
AA8
330
A02
100
AcDbEntity
  8
SectionView
100
AcDbLine
 10
26.737410082
 20
119.344892319
 30
0.000000000
 11
26.737410082
 21
144.344892319
 31
0.000000000
  0
SPLINE
  5
AA9
330
A02
100
AcDbEntity
  8
SectionView
100
AcDbSpline
210
0
220
0
230
1
 70
8
 71
1
 72
17
 73
15
 74
0
 40
4.347458000
 40
4.347458000
 40
4.373524499
 40
4.399590997
 40
4.425657496
 40
4.451723994
 40
4.477790493
 40
4.503856992
 40
4.529923490
 40
4.555989989
 40
4.582056487
 40
4.608122986
 40
4.634189485
 40
4.660255983
 40
4.686322482
 40
4.712388980
 40
4.712388980
 10
28.647106614
 20
144.344892319
 30
0.000000000
 10
28.386560671
 20
144.344892319
 30
0.000000000
 10
28.144597548
 20
144.344892319
 30
0.000000000
 10
27.921381640
 20
144.344892319
 30
0.000000000
 10
27.717064606
 20
144.344892319
 30
0.000000000
 10
27.531785264
 20
144.344892319
 30
0.000000000
 10
27.365669497
 20
144.344892319
 30
0.000000000
 10
27.218830169
 20
144.344892319
 30
0.000000000
 10
27.091367044
 20
144.344892319
 30
0.000000000
 10
26.983366725
 20
144.344892319
 30
0.000000000
 10
26.894902589
 20
144.344892319
 30
0.000000000
 10
26.826034742
 20
144.344892319
 30
0.000000000
 10
26.776809974
 20
144.344892319
 30
0.000000000
 10
26.747261728
 20
144.344892319
 30
0.000000000
 10
26.737410082
 20
144.344892319
 30
0.000000000
  0
LINE
  5
AAA
330
A02
100
AcDbEntity
  8
SectionView
100
AcDbLine
 10
22.837410082
 20
119.344892319
 30
0.000000000
 11
22.837410082
 21
144.344892319
 31
0.000000000
  0
LINE
  5
AAB
330
A02
100
AcDbEntity
  8
SectionView
100
AcDbLine
 10
26.737410082
 20
119.344892319
 30
0.000000000
 11
22.837410082
 21
119.344892319
 31
0.000000000
  0
LINE
  5
AAC
330
A02
100
AcDbEntity
  8
SectionView
100
AcDbLine
 10
26.737410082
 20
144.344892319
 30
0.000000000
 11
22.837410082
 21
144.344892319
 31
0.000000000
  0
LINE
  5
AAD
330
A02
100
AcDbEntity
  8
SectionView
100
AcDbLine
 10
66.087070082
 20
127.594892319
 30
0.000000000
 11
66.087070082
 21
144.344892319
 31
0.000000000
  0
LINE
  5
AAE
330
A02
100
AcDbEntity
  8
SectionView
100
AcDbLine
 10
55.737410082
 20
127.594892319
 30
0.000000000
 11
55.737410082
 21
144.344892319
 31
0.000000000
  0
SPLINE
  5
AAF
330
A02
100
AcDbEntity
  8
SectionView
100
AcDbSpline
210
0
220
0
230
1
 70
8
 71
3
 72
8
 73
4
 74
0
 40
2.776661708
 40
2.776661708
 40
2.776661708
 40
2.776661708
 40
3.141592654
 40
3.141592654
 40
3.141592654
 40
3.141592654
 10
66.087070082
 20
144.344892319
 30
0.000000000
 10
62.790788108
 20
144.344892319
 30
0.000000000
 10
59.265524952
 20
144.344892319
 30
0.000000000
 10
55.737410082
 20
144.344892319
 30
0.000000000
  0
LINE
  5
AB0
330
A02
100
AcDbEntity
  8
SectionView
100
AcDbLine
 10
67.478918082
 20
127.594892319
 30
0.000000000
 11
67.478918082
 21
144.344892319
 31
0.000000000
  0
LINE
  5
AB1
330
A02
100
AcDbEntity
  8
SectionView
100
AcDbLine
 10
66.087070082
 20
144.344892319
 30
0.000000000
 11
67.478918082
 21
144.344892319
 31
0.000000000
  0
DIMENSION
  5
AB2
330
A02
100
AcDbEntity
  8
Dimension
100
AcDbDimension
  2
*Dimension
 10
54.514700129
 20
63.566737805
 30
0.000000000
 11
46.494767072
 21
74.659966727
 31
0.000000000
 70
3
  1
⌀3
  3
STANDARD
100
AcDbDiametricDimension
 15
56.960120015
 25
61.828945648
 35
0.000000000
 40
0
  0
DIMENSION
  5
ABA
330
A02
100
AcDbEntity
  8
Dimension001
100
AcDbDimension
  2
*Dimension001
 10
23.093509439
 20
66.794885240
 30
0.000000000
 11
13.022054072
 21
72.490294727
 31
0.000000000
 70
3
  1
⌀65.8
  3
STANDARD
100
AcDbDiametricDimension
 15
88.381310274
 25
58.600798213
 35
0.000000000
 40
0
  0
DIMENSION
  5
AC2
330
A02
100
AcDbEntity
  8
Dimension002
100
AcDbDimension
  2
*Dimension002
 10
121.137410172
 20
100.864269727
 30
0.000000000
 11
121.137410172
 21
105.864269727
 31
0.000000000
 70
32
  1
25
  3
STANDARD
100
AcDbAlignedDimension
 13
108.637410172
 23
95.597841727
 33
0.000000000
 14
133.637410172
 24
95.597841727
 34
0.000000000
100
AcDbRotatedDimension
  0
ENDSEC
  0
SECTION
  2
OBJECTS
  0
DICTIONARY
  5
F000
330
0
100
AcDbDictionary
  3
ACAD_GROUP
350
F001
  0
DICTIONARY
  5
F001
330
F000
100
AcDbDictionary
  0
ENDSEC
  0
EOF