M48
; DRILL file {KiCad 8.0.6} date 2024-12-12T22:55:27+0900
; FORMAT={-:-/ absolute / inch / decimal}
; #@! TF.CreationDate,2024-12-12T22:55:27+09:00
; #@! TF.GenerationSoftware,Kicad,Pcbnew,8.0.6
; #@! TF.FileFunction,Plated,1,2,PTH
FMAT,2
INCH
; #@! TA.AperFunction,Plated,PTH,ViaDrill
T1C0.0118
; #@! TA.AperFunction,Plated,PTH,ComponentDrill
T2C0.0295
; #@! TA.AperFunction,Plated,PTH,ComponentDrill
T3C0.0300
; #@! TA.AperFunction,Plated,PTH,ComponentDrill
T4C0.0394
%
G90
G05
T1
X5.2283Y-2.6181
T2
X5.0197Y-3.628
X5.0984Y-3.628
X5.315Y-3.628
X5.3937Y-3.628
T3
X4.55Y-3.8173
X4.648Y-3.8173
X4.7465Y-3.8173
X5.0866Y-2.1409
X5.0866Y-2.4409
X5.1866Y-2.1409
X5.1866Y-2.4409
X5.2858Y-2.1409
X5.2866Y-2.4409
X5.3866Y-2.4409
X5.387Y-2.1409
X5.4866Y-2.1409
X5.4866Y-2.4409
X5.5862Y-2.1409
X5.5866Y-2.4409
X5.8169Y-2.1953
X5.8169Y-2.2953
X5.8169Y-2.3953
X6.3169Y-2.1953
X6.3169Y-2.3953
T4
X5.4134Y-2.9026
X5.4134Y-3.0026
X5.589Y-3.4774
X5.689Y-3.4774
X5.8811Y-3.4774
X5.9811Y-3.4774
X6.0039Y-2.9026
X6.0039Y-3.0026
X6.0811Y-3.4774
X6.1811Y-3.4774
X6.2811Y-3.4774
X6.3811Y-3.4774
M30
