%TF.GenerationSoftware,KiCad,Pcbnew,8.0.6*%
%TF.CreationDate,2024-12-12T22:55:36+09:00*%
%TF.ProjectId,basic_motor,62617369-635f-46d6-9f74-6f722e6b6963,rev?*%
%TF.SameCoordinates,Original*%
%TF.FileFunction,Copper,L2,Bot*%
%TF.FilePolarity,Positive*%
%FSLAX46Y46*%
G04 Gerber Fmt 4.6, Leading zero omitted, Abs format (unit mm)*
G04 Created by KiCad (PCBNEW 8.0.6) date 2024-12-12 22:55:36*
%MOMM*%
%LPD*%
G01*
G04 APERTURE LIST*
G04 Aperture macros list*
%AMRoundRect*
0 Rectangle with rounded corners*
0 $1 Rounding radius*
0 $2 $3 $4 $5 $6 $7 $8 $9 X,Y pos of 4 corners*
0 Add a 4 corners polygon primitive as box body*
4,1,4,$2,$3,$4,$5,$6,$7,$8,$9,$2,$3,0*
0 Add four circle primitives for the rounded corners*
1,1,$1+$1,$2,$3*
1,1,$1+$1,$4,$5*
1,1,$1+$1,$6,$7*
1,1,$1+$1,$8,$9*
0 Add four rect primitives between the rounded corners*
20,1,$1+$1,$2,$3,$4,$5,0*
20,1,$1+$1,$4,$5,$6,$7,0*
20,1,$1+$1,$6,$7,$8,$9,0*
20,1,$1+$1,$8,$9,$2,$3,0*%
G04 Aperture macros list end*
%TA.AperFunction,ComponentPad*%
%ADD10R,1.700000X1.700000*%
%TD*%
%TA.AperFunction,ComponentPad*%
%ADD11O,1.700000X1.700000*%
%TD*%
%TA.AperFunction,ComponentPad*%
%ADD12R,1.524000X1.524000*%
%TD*%
%TA.AperFunction,ComponentPad*%
%ADD13C,1.524000*%
%TD*%
%TA.AperFunction,ComponentPad*%
%ADD14RoundRect,0.250000X-0.350000X-0.625000X0.350000X-0.625000X0.350000X0.625000X-0.350000X0.625000X0*%
%TD*%
%TA.AperFunction,ComponentPad*%
%ADD15O,1.200000X1.750000*%
%TD*%
%TA.AperFunction,ViaPad*%
%ADD16C,0.500000*%
%TD*%
%TA.AperFunction,Conductor*%
%ADD17C,0.500000*%
%TD*%
%TA.AperFunction,Conductor*%
%ADD18C,0.200000*%
%TD*%
G04 APERTURE END LIST*
D10*
%TO.P,J3,1,Pin_1*%
%TO.N,/OUT_5v*%
X144500000Y-88325000D03*
D11*
%TO.P,J3,2,Pin_2*%
%TO.N,/OUT_GND*%
X141960000Y-88325000D03*
%TD*%
D12*
%TO.P,U2,1,VM*%
%TO.N,/BATE*%
X129200000Y-62000000D03*
D13*
%TO.P,U2,2,AOUT1*%
%TO.N,/AOUT1*%
X131740000Y-62000000D03*
%TO.P,U2,3,AOUT2*%
%TO.N,/AOUT2*%
X134280000Y-62000000D03*
%TO.P,U2,4,BOUT1*%
%TO.N,/BOUT1*%
X136820000Y-62000000D03*
%TO.P,U2,5,BOUT2*%
%TO.N,/BOUT2*%
X139360000Y-62000000D03*
%TO.P,U2,6,GND*%
%TO.N,/GND*%
X141900000Y-62000000D03*
%TO.P,U2,7,VCC*%
%TO.N,/3.3v*%
X129200000Y-54380000D03*
%TO.P,U2,8,MODE*%
%TO.N,/GND*%
X131740000Y-54380000D03*
%TO.P,U2,9,AIN1*%
%TO.N,/AIN1*%
X134260000Y-54380000D03*
%TO.P,U2,10,AIN2*%
%TO.N,/AIN2*%
X136830000Y-54380000D03*
%TO.P,U2,11,BIN1*%
%TO.N,/BIN1*%
X139360000Y-54380000D03*
%TO.P,U2,12,BIN2*%
%TO.N,/BIN2*%
X141890000Y-54380000D03*
%TD*%
D12*
%TO.P,U1,1,GND*%
%TO.N,/IN_GND*%
X147750000Y-55760000D03*
D13*
%TO.P,U1,2,EN*%
%TO.N,Net-(U1-EN)*%
X147750000Y-58300000D03*
%TO.P,U1,3,VIN*%
%TO.N,/IN_5v*%
X147750000Y-60840000D03*
%TO.P,U1,4,GND*%
%TO.N,/OUT_GND*%
X160450000Y-55760000D03*
%TO.P,U1,5,VOUT*%
%TO.N,/OUT_5v*%
X160450000Y-60840000D03*
%TD*%
D10*
%TO.P,J5,1,Pin_1*%
%TO.N,/AOUT1*%
X137500000Y-73725000D03*
D11*
%TO.P,J5,2,Pin_2*%
%TO.N,/AOUT2*%
X137500000Y-76265000D03*
%TD*%
D13*
%TO.P,SW1,1*%
%TO.N,Net-(U1-EN)*%
X115570000Y-96960000D03*
%TO.P,SW1,2*%
%TO.N,/IN_5v*%
X120560000Y-96960000D03*
%TO.P,SW1,3*%
%TO.N,N/C*%
X118060000Y-96960000D03*
%TD*%
D14*
%TO.P,J2,1,Pin_1*%
%TO.N,/IN_5v*%
X127500000Y-92150000D03*
D15*
%TO.P,J2,2,Pin_2*%
%TO.N,/IN_GND*%
X129500000Y-92150000D03*
%TD*%
D10*
%TO.P,J4,1,Pin_1*%
%TO.N,/3.3v*%
X162080000Y-88325000D03*
D11*
%TO.P,J4,2,Pin_2*%
%TO.N,/GND*%
X159540000Y-88325000D03*
%TO.P,J4,3,Pin_3*%
%TO.N,/AIN1*%
X157000000Y-88325000D03*
%TO.P,J4,4,Pin_4*%
%TO.N,/AIN2*%
X154460000Y-88325000D03*
%TO.P,J4,5,Pin_5*%
%TO.N,/BIN1*%
X151920000Y-88325000D03*
%TO.P,J4,6,Pin_6*%
%TO.N,/BIN2*%
X149380000Y-88325000D03*
%TD*%
D14*
%TO.P,J1,1,Pin_1*%
%TO.N,/BATE*%
X135000000Y-92150000D03*
D15*
%TO.P,J1,2,Pin_2*%
%TO.N,/GND*%
X137000000Y-92150000D03*
%TD*%
D10*
%TO.P,J6,1,Pin_1*%
%TO.N,/BOUT1*%
X152500000Y-73725000D03*
D11*
%TO.P,J6,2,Pin_2*%
%TO.N,/BOUT2*%
X152500000Y-76265000D03*
%TD*%
D16*
%TO.N,/GND*%
X132800000Y-66500000D03*
%TD*%
D17*
%TO.N,/GND*%
X140400000Y-55900000D02*
X133260000Y-55900000D01*
X141900000Y-57400000D02*
X140400000Y-55900000D01*
X133260000Y-55900000D02*
X131740000Y-54380000D01*
X141900000Y-62000000D02*
X141900000Y-57400000D01*
X134500000Y-64800000D02*
X139100000Y-64800000D01*
X139100000Y-64800000D02*
X141900000Y-62000000D01*
X132800000Y-66500000D02*
X134500000Y-64800000D01*
%TO.N,/IN_5v*%
X145910050Y-62289950D02*
X147360000Y-60840000D01*
X142400000Y-77250000D02*
X142400000Y-73710050D01*
X127500000Y-92150000D02*
X142400000Y-77250000D01*
X127500000Y-92150000D02*
X122690000Y-96960000D01*
X147360000Y-60840000D02*
X147750000Y-60840000D01*
X145910050Y-70199999D02*
X145910050Y-62289950D01*
X142400000Y-73710050D02*
X145910050Y-70199999D01*
X122690000Y-96960000D02*
X120560000Y-96960000D01*
%TO.N,/IN_GND*%
X129500000Y-92150000D02*
X129500000Y-91500000D01*
X143100000Y-77900000D02*
X143100000Y-74000000D01*
X129500000Y-91500000D02*
X143100000Y-77900000D01*
X153000000Y-64100000D02*
X153000000Y-61010000D01*
X143100000Y-74000000D02*
X153000000Y-64100000D01*
X153000000Y-61010000D02*
X147750000Y-55760000D01*
%TO.N,/OUT_5v*%
X144500000Y-74700000D02*
X144500000Y-88325000D01*
X160450000Y-60840000D02*
X158360000Y-60840000D01*
X158360000Y-60840000D02*
X144500000Y-74700000D01*
%TO.N,/OUT_GND*%
X160450000Y-57760050D02*
X160450000Y-55760000D01*
X143800000Y-74410050D02*
X160450000Y-57760050D01*
X141960000Y-88325000D02*
X143800000Y-86485000D01*
X143800000Y-86485000D02*
X143800000Y-74410050D01*
D18*
%TO.N,/AOUT1*%
X134425000Y-73725000D02*
X137500000Y-73725000D01*
X131740000Y-71040000D02*
X134425000Y-73725000D01*
X131740000Y-62000000D02*
X131740000Y-71040000D01*
D17*
%TO.N,Net-(U1-EN)*%
X127978122Y-89700000D02*
X128960050Y-89700000D01*
X128960050Y-89700000D02*
X141700000Y-76960050D01*
X145210050Y-60839950D02*
X147750000Y-58300000D01*
X115570000Y-96960000D02*
X116140000Y-96960000D01*
X145210050Y-69910050D02*
X145210050Y-60839950D01*
X122878122Y-94800000D02*
X127978122Y-89700000D01*
X141700000Y-73420100D02*
X145210050Y-69910050D01*
X115570000Y-95630000D02*
X116400000Y-94800000D01*
X115570000Y-96960000D02*
X115570000Y-95630000D01*
X116400000Y-94800000D02*
X122878122Y-94800000D01*
X141700000Y-76960050D02*
X141700000Y-73420100D01*
%TD*%
%TA.AperFunction,Conductor*%
%TO.N,/GND*%
G36*
X163516177Y-50520185D02*
G01*
X163536819Y-50536819D01*
X166263681Y-53263681D01*
X166297166Y-53325004D01*
X166300000Y-53351362D01*
X166300000Y-99375500D01*
X166280315Y-99442539D01*
X166227511Y-99488294D01*
X166176000Y-99499500D01*
X112624000Y-99499500D01*
X112556961Y-99479815D01*
X112511206Y-99427011D01*
X112500000Y-99375500D01*
X112500000Y-96960002D01*
X114302677Y-96960002D01*
X114321929Y-97180062D01*
X114321930Y-97180070D01*
X114379104Y-97393445D01*
X114379105Y-97393447D01*
X114379106Y-97393450D01*
X114432382Y-97507701D01*
X114472466Y-97593662D01*
X114472468Y-97593666D01*
X114599170Y-97774615D01*
X114599175Y-97774621D01*
X114755378Y-97930824D01*
X114755384Y-97930829D01*
X114936333Y-98057531D01*
X114936335Y-98057532D01*
X114936338Y-98057534D01*
X115136550Y-98150894D01*
X115349932Y-98208070D01*
X115507123Y-98221822D01*
X115569998Y-98227323D01*
X115570000Y-98227323D01*
X115570002Y-98227323D01*
X115625017Y-98222509D01*
X115790068Y-98208070D01*
X116003450Y-98150894D01*
X116203662Y-98057534D01*
X116384620Y-97930826D01*
X116540826Y-97774620D01*
X116667534Y-97593662D01*
X116702618Y-97518424D01*
X116748790Y-97465984D01*
X116815983Y-97446832D01*
X116882865Y-97467048D01*
X116927382Y-97518424D01*
X116962464Y-97593658D01*
X116962468Y-97593666D01*
X117089170Y-97774615D01*
X117089175Y-97774621D01*
X117245378Y-97930824D01*
X117245384Y-97930829D01*
X117426333Y-98057531D01*
X117426335Y-98057532D01*
X117426338Y-98057534D01*
X117626550Y-98150894D01*
X117839932Y-98208070D01*
X117997123Y-98221822D01*
X118059998Y-98227323D01*
X118060000Y-98227323D01*
X118060002Y-98227323D01*
X118115017Y-98222509D01*
X118280068Y-98208070D01*
X118493450Y-98150894D01*
X118693662Y-98057534D01*
X118874620Y-97930826D01*
X119030826Y-97774620D01*
X119157534Y-97593662D01*
X119197618Y-97507700D01*
X119243790Y-97455261D01*
X119310983Y-97436109D01*
X119377864Y-97456324D01*
X119422382Y-97507701D01*
X119462464Y-97593658D01*
X119462468Y-97593666D01*
X119589170Y-97774615D01*
X119589175Y-97774621D01*
X119745378Y-97930824D01*
X119745384Y-97930829D01*
X119926333Y-98057531D01*
X119926335Y-98057532D01*
X119926338Y-98057534D01*
X120126550Y-98150894D01*
X120339932Y-98208070D01*
X120497123Y-98221822D01*
X120559998Y-98227323D01*
X120560000Y-98227323D01*
X120560002Y-98227323D01*
X120615017Y-98222509D01*
X120780068Y-98208070D01*
X120993450Y-98150894D01*
X121193662Y-98057534D01*
X121374620Y-97930826D01*
X121530826Y-97774620D01*
X121531603Y-97773509D01*
X121538700Y-97763376D01*
X121593277Y-97719751D01*
X121640274Y-97710500D01*
X122763920Y-97710500D01*
X122861462Y-97691096D01*
X122908913Y-97681658D01*
X123045495Y-97625084D01*
X123094729Y-97592186D01*
X123168416Y-97542952D01*
X127149548Y-93561817D01*
X127210871Y-93528333D01*
X127237229Y-93525499D01*
X127900002Y-93525499D01*
X127900008Y-93525499D01*
X128002797Y-93514999D01*
X128169334Y-93459814D01*
X128318656Y-93367712D01*
X128442712Y-93243656D01*
X128482310Y-93179456D01*
X128534258Y-93132732D01*
X128603220Y-93121509D01*
X128667303Y-93149352D01*
X128675530Y-93156872D01*
X128783072Y-93264414D01*
X128923212Y-93366232D01*
X129077555Y-93444873D01*
X129242299Y-93498402D01*
X129413389Y-93525500D01*
X129413390Y-93525500D01*
X129586610Y-93525500D01*
X129586611Y-93525500D01*
X129757701Y-93498402D01*
X129922445Y-93444873D01*
X130076788Y-93366232D01*
X130216928Y-93264414D01*
X130339414Y-93141928D01*
X130441232Y-93001788D01*
X130519873Y-92847445D01*
X130527166Y-92825001D01*
X133899500Y-92825001D01*
X133899501Y-92825018D01*
X133910000Y-92927796D01*
X133910001Y-92927799D01*
X133965185Y-93094331D01*
X133965187Y-93094336D01*
X133988600Y-93132294D01*
X134057288Y-93243656D01*
X134181344Y-93367712D01*
X134330666Y-93459814D01*
X134497203Y-93514999D01*
X134599991Y-93525500D01*
X135400008Y-93525499D01*
X135400016Y-93525498D01*
X135400019Y-93525498D01*
X135456302Y-93519748D01*
X135502797Y-93514999D01*
X135669334Y-93459814D01*
X135818656Y-93367712D01*
X135942712Y-93243656D01*
X135982581Y-93179016D01*
X136034525Y-93132294D01*
X136103488Y-93121071D01*
X136167570Y-93148914D01*
X136175799Y-93156434D01*
X136283397Y-93264032D01*
X136423475Y-93365804D01*
X136577744Y-93444408D01*
X136742415Y-93497914D01*
X136742414Y-93497914D01*
X136749999Y-93499115D01*
X136750000Y-93499114D01*
X136750000Y-92430330D01*
X136769745Y-92450075D01*
X136855255Y-92499444D01*
X136950630Y-92525000D01*
X137049370Y-92525000D01*
X137144745Y-92499444D01*
X137230255Y-92450075D01*
X137250000Y-92430330D01*
X137250000Y-93499115D01*
X137257584Y-93497914D01*
X137422255Y-93444408D01*
X137576524Y-93365804D01*
X137716602Y-93264032D01*
X137839032Y-93141602D01*
X137940804Y-93001524D01*
X138019408Y-92847257D01*
X138072914Y-92682584D01*
X138100000Y-92511571D01*
X138100000Y-92400000D01*
X137280330Y-92400000D01*
X137300075Y-92380255D01*
X137349444Y-92294745D01*
X137375000Y-92199370D01*
X137375000Y-92100630D01*
X137349444Y-92005255D01*
X137300075Y-91919745D01*
X137280330Y-91900000D01*
X138100000Y-91900000D01*
X138100000Y-91788428D01*
X138072914Y-91617415D01*
X138019408Y-91452742D01*
X137940804Y-91298475D01*
X137839032Y-91158397D01*
X137716602Y-91035967D01*
X137576524Y-90934195D01*
X137422257Y-90855591D01*
X137257589Y-90802087D01*
X137257581Y-90802085D01*
X137250000Y-90800884D01*
X137250000Y-91869670D01*
X137230255Y-91849925D01*
X137144745Y-91800556D01*
X137049370Y-91775000D01*
X136950630Y-91775000D01*
X136855255Y-91800556D01*
X136769745Y-91849925D01*
X136750000Y-91869670D01*
X136750000Y-90800884D01*
X136749999Y-90800884D01*
X136742418Y-90802085D01*
X136742410Y-90802087D01*
X136577742Y-90855591D01*
X136423475Y-90934195D01*
X136283401Y-91035964D01*
X136175799Y-91143566D01*
X136114476Y-91177050D01*
X136044784Y-91172066D01*
X135988851Y-91130194D01*
X135982585Y-91120988D01*
X135942712Y-91056344D01*
X135818656Y-90932288D01*
X135669334Y-90840186D01*
X135502797Y-90785001D01*
X135502795Y-90785000D01*
X135400010Y-90774500D01*
X134599998Y-90774500D01*
X134599980Y-90774501D01*
X134497203Y-90785000D01*
X134497200Y-90785001D01*
X134330668Y-90840185D01*
X134330663Y-90840187D01*
X134181342Y-90932289D01*
X134057289Y-91056342D01*
X133965187Y-91205663D01*
X133965186Y-91205666D01*
X133910001Y-91372203D01*
X133910001Y-91372204D01*
X133910000Y-91372204D01*
X133899500Y-91474983D01*
X133899500Y-92825001D01*
X130527166Y-92825001D01*
X130573402Y-92682701D01*
X130600500Y-92511611D01*
X130600500Y-91788389D01*
X130573402Y-91617299D01*
X130565164Y-91591948D01*
X130563170Y-91522110D01*
X130595413Y-91465953D01*
X142837819Y-79223548D01*
X142899142Y-79190063D01*
X142968834Y-79195047D01*
X143024767Y-79236919D01*
X143049184Y-79302383D01*
X143049500Y-79311229D01*
X143049500Y-86122769D01*
X143029815Y-86189808D01*
X143013181Y-86210450D01*
X142271500Y-86952130D01*
X142210177Y-86985615D01*
X142173012Y-86987977D01*
X141960002Y-86969341D01*
X141959999Y-86969341D01*
X141724596Y-86989936D01*
X141724586Y-86989938D01*
X141496344Y-87051094D01*
X141496335Y-87051098D01*
X141282171Y-87150964D01*
X141282169Y-87150965D01*
X141088597Y-87286505D01*
X140921505Y-87453597D01*
X140785965Y-87647169D01*
X140785964Y-87647171D01*
X140686098Y-87861335D01*
X140686094Y-87861344D01*
X140624938Y-88089586D01*
X140624936Y-88089596D01*
X140604341Y-88324999D01*
X140604341Y-88325000D01*
X140624936Y-88560403D01*
X140624938Y-88560413D01*
X140686094Y-88788655D01*
X140686096Y-88788659D01*
X140686097Y-88788663D01*
X140780500Y-88991110D01*
X140785965Y-89002830D01*
X140785967Y-89002834D01*
X140865941Y-89117048D01*
X140921505Y-89196401D01*
X141088599Y-89363495D01*
X141185384Y-89431265D01*
X141282165Y-89499032D01*
X141282167Y-89499033D01*
X141282170Y-89499035D01*
X141496337Y-89598903D01*
X141724592Y-89660063D01*
X141901034Y-89675500D01*
X141959999Y-89680659D01*
X141960000Y-89680659D01*
X141960001Y-89680659D01*
X142018966Y-89675500D01*
X142195408Y-89660063D01*
X142423663Y-89598903D01*
X142637830Y-89499035D01*
X142831401Y-89363495D01*
X142953329Y-89241566D01*
X143014648Y-89208084D01*
X143084340Y-89213068D01*
X143140274Y-89254939D01*
X143157189Y-89285917D01*
X143206202Y-89417328D01*
X143206206Y-89417335D01*
X143292452Y-89532544D01*
X143292455Y-89532547D01*
X143407664Y-89618793D01*
X143407671Y-89618797D01*
X143542517Y-89669091D01*
X143542516Y-89669091D01*
X143549444Y-89669835D01*
X143602127Y-89675500D01*
X145397872Y-89675499D01*
X145457483Y-89669091D01*
X145592331Y-89618796D01*
X145707546Y-89532546D01*
X145793796Y-89417331D01*
X145844091Y-89282483D01*
X145850500Y-89222873D01*
X145850499Y-88325000D01*
X148024341Y-88325000D01*
X148044936Y-88560403D01*
X148044938Y-88560413D01*
X148106094Y-88788655D01*
X148106096Y-88788659D01*
X148106097Y-88788663D01*
X148200500Y-88991110D01*
X148205965Y-89002830D01*
X148205967Y-89002834D01*
X148285941Y-89117048D01*
X148341505Y-89196401D01*
X148508599Y-89363495D01*
X148605384Y-89431265D01*
X148702165Y-89499032D01*
X148702167Y-89499033D01*
X148702170Y-89499035D01*
X148916337Y-89598903D01*
X149144592Y-89660063D01*
X149321034Y-89675500D01*
X149379999Y-89680659D01*
X149380000Y-89680659D01*
X149380001Y-89680659D01*
X149438966Y-89675500D01*
X149615408Y-89660063D01*
X149843663Y-89598903D01*
X150057830Y-89499035D01*
X150251401Y-89363495D01*
X150418495Y-89196401D01*
X150548425Y-89010842D01*
X150603002Y-88967217D01*
X150672500Y-88960023D01*
X150734855Y-88991546D01*
X150751575Y-89010842D01*
X150881500Y-89196395D01*
X150881505Y-89196401D01*
X151048599Y-89363495D01*
X151145384Y-89431265D01*
X151242165Y-89499032D01*
X151242167Y-89499033D01*
X151242170Y-89499035D01*
X151456337Y-89598903D01*
X151684592Y-89660063D01*
X151861034Y-89675500D01*
X151919999Y-89680659D01*
X151920000Y-89680659D01*
X151920001Y-89680659D01*
X151978966Y-89675500D01*
X152155408Y-89660063D01*
X152383663Y-89598903D01*
X152597830Y-89499035D01*
X152791401Y-89363495D01*
X152958495Y-89196401D01*
X153088425Y-89010842D01*
X153143002Y-88967217D01*
X153212500Y-88960023D01*
X153274855Y-88991546D01*
X153291575Y-89010842D01*
X153421500Y-89196395D01*
X153421505Y-89196401D01*
X153588599Y-89363495D01*
X153685384Y-89431265D01*
X153782165Y-89499032D01*
X153782167Y-89499033D01*
X153782170Y-89499035D01*
X153996337Y-89598903D01*
X154224592Y-89660063D01*
X154401034Y-89675500D01*
X154459999Y-89680659D01*
X154460000Y-89680659D01*
X154460001Y-89680659D01*
X154518966Y-89675500D01*
X154695408Y-89660063D01*
X154923663Y-89598903D01*
X155137830Y-89499035D01*
X155331401Y-89363495D01*
X155498495Y-89196401D01*
X155628425Y-89010842D01*
X155683002Y-88967217D01*
X155752500Y-88960023D01*
X155814855Y-88991546D01*
X155831575Y-89010842D01*
X155961500Y-89196395D01*
X155961505Y-89196401D01*
X156128599Y-89363495D01*
X156225384Y-89431265D01*
X156322165Y-89499032D01*
X156322167Y-89499033D01*
X156322170Y-89499035D01*
X156536337Y-89598903D01*
X156764592Y-89660063D01*
X156941034Y-89675500D01*
X156999999Y-89680659D01*
X157000000Y-89680659D01*
X157000001Y-89680659D01*
X157058966Y-89675500D01*
X157235408Y-89660063D01*
X157463663Y-89598903D01*
X157677830Y-89499035D01*
X157871401Y-89363495D01*
X158038495Y-89196401D01*
X158168730Y-89010405D01*
X158223307Y-88966781D01*
X158292805Y-88959587D01*
X158355160Y-88991110D01*
X158371879Y-89010405D01*
X158501890Y-89196078D01*
X158668917Y-89363105D01*
X158862421Y-89498600D01*
X159076507Y-89598429D01*
X159076516Y-89598433D01*
X159290000Y-89655634D01*
X159290000Y-88758012D01*
X159347007Y-88790925D01*
X159474174Y-88825000D01*
X159605826Y-88825000D01*
X159732993Y-88790925D01*
X159790000Y-88758012D01*
X159790000Y-89655633D01*
X160003483Y-89598433D01*
X160003492Y-89598429D01*
X160217578Y-89498600D01*
X160411078Y-89363108D01*
X160533133Y-89241053D01*
X160594456Y-89207568D01*
X160664148Y-89212552D01*
X160720082Y-89254423D01*
X160736997Y-89285401D01*
X160786202Y-89417328D01*
X160786206Y-89417335D01*
X160872452Y-89532544D01*
X160872455Y-89532547D01*
X160987664Y-89618793D01*
X160987671Y-89618797D01*
X161122517Y-89669091D01*
X161122516Y-89669091D01*
X161129444Y-89669835D01*
X161182127Y-89675500D01*
X162977872Y-89675499D01*
X163037483Y-89669091D01*
X163172331Y-89618796D01*
X163287546Y-89532546D01*
X163373796Y-89417331D01*
X163424091Y-89282483D01*
X163430500Y-89222873D01*
X163430499Y-87427128D01*
X163424091Y-87367517D01*
X163423002Y-87364598D01*
X163373797Y-87232671D01*
X163373793Y-87232664D01*
X163287547Y-87117455D01*
X163287544Y-87117452D01*
X163172335Y-87031206D01*
X163172328Y-87031202D01*
X163037482Y-86980908D01*
X163037483Y-86980908D01*
X162977883Y-86974501D01*
X162977881Y-86974500D01*
X162977873Y-86974500D01*
X162977864Y-86974500D01*
X161182129Y-86974500D01*
X161182123Y-86974501D01*
X161122516Y-86980908D01*
X160987671Y-87031202D01*
X160987664Y-87031206D01*
X160872455Y-87117452D01*
X160872452Y-87117455D01*
X160786206Y-87232664D01*
X160786202Y-87232671D01*
X160736997Y-87364598D01*
X160695126Y-87420532D01*
X160629661Y-87444949D01*
X160561388Y-87430097D01*
X160533134Y-87408946D01*
X160411082Y-87286894D01*
X160217578Y-87151399D01*
X160003492Y-87051570D01*
X160003486Y-87051567D01*
X159790000Y-86994364D01*
X159790000Y-87891988D01*
X159732993Y-87859075D01*
X159605826Y-87825000D01*
X159474174Y-87825000D01*
X159347007Y-87859075D01*
X159290000Y-87891988D01*
X159290000Y-86994364D01*
X159289999Y-86994364D01*
X159076513Y-87051567D01*
X159076507Y-87051570D01*
X158862422Y-87151399D01*
X158862420Y-87151400D01*
X158668926Y-87286886D01*
X158668920Y-87286891D01*
X158501891Y-87453920D01*
X158501890Y-87453922D01*
X158371880Y-87639595D01*
X158317303Y-87683219D01*
X158247804Y-87690412D01*
X158185450Y-87658890D01*
X158168730Y-87639594D01*
X158038494Y-87453597D01*
X157871402Y-87286506D01*
X157871395Y-87286501D01*
X157677834Y-87150967D01*
X157677830Y-87150965D01*
X157677828Y-87150964D01*
X157463663Y-87051097D01*
X157463659Y-87051096D01*
X157463655Y-87051094D01*
X157235413Y-86989938D01*
X157235403Y-86989936D01*
X157000001Y-86969341D01*
X156999999Y-86969341D01*
X156764596Y-86989936D01*
X156764586Y-86989938D01*
X156536344Y-87051094D01*
X156536335Y-87051098D01*
X156322171Y-87150964D01*
X156322169Y-87150965D01*
X156128597Y-87286505D01*
X155961505Y-87453597D01*
X155831575Y-87639158D01*
X155776998Y-87682783D01*
X155707500Y-87689977D01*
X155645145Y-87658454D01*
X155628425Y-87639158D01*
X155498494Y-87453597D01*
X155331402Y-87286506D01*
X155331395Y-87286501D01*
X155137834Y-87150967D01*
X155137830Y-87150965D01*
X155137828Y-87150964D01*
X154923663Y-87051097D01*
X154923659Y-87051096D01*
X154923655Y-87051094D01*
X154695413Y-86989938D01*
X154695403Y-86989936D01*
X154460001Y-86969341D01*
X154459999Y-86969341D01*
X154224596Y-86989936D01*
X154224586Y-86989938D01*
X153996344Y-87051094D01*
X153996335Y-87051098D01*
X153782171Y-87150964D01*
X153782169Y-87150965D01*
X153588597Y-87286505D01*
X153421505Y-87453597D01*
X153291575Y-87639158D01*
X153236998Y-87682783D01*
X153167500Y-87689977D01*
X153105145Y-87658454D01*
X153088425Y-87639158D01*
X152958494Y-87453597D01*
X152791402Y-87286506D01*
X152791395Y-87286501D01*
X152597834Y-87150967D01*
X152597830Y-87150965D01*
X152597828Y-87150964D01*
X152383663Y-87051097D01*
X152383659Y-87051096D01*
X152383655Y-87051094D01*
X152155413Y-86989938D01*
X152155403Y-86989936D01*
X151920001Y-86969341D01*
X151919999Y-86969341D01*
X151684596Y-86989936D01*
X151684586Y-86989938D01*
X151456344Y-87051094D01*
X151456335Y-87051098D01*
X151242171Y-87150964D01*
X151242169Y-87150965D01*
X151048597Y-87286505D01*
X150881505Y-87453597D01*
X150751575Y-87639158D01*
X150696998Y-87682783D01*
X150627500Y-87689977D01*
X150565145Y-87658454D01*
X150548425Y-87639158D01*
X150418494Y-87453597D01*
X150251402Y-87286506D01*
X150251395Y-87286501D01*
X150057834Y-87150967D01*
X150057830Y-87150965D01*
X150057828Y-87150964D01*
X149843663Y-87051097D01*
X149843659Y-87051096D01*
X149843655Y-87051094D01*
X149615413Y-86989938D01*
X149615403Y-86989936D01*
X149380001Y-86969341D01*
X149379999Y-86969341D01*
X149144596Y-86989936D01*
X149144586Y-86989938D01*
X148916344Y-87051094D01*
X148916335Y-87051098D01*
X148702171Y-87150964D01*
X148702169Y-87150965D01*
X148508597Y-87286505D01*
X148341505Y-87453597D01*
X148205965Y-87647169D01*
X148205964Y-87647171D01*
X148106098Y-87861335D01*
X148106094Y-87861344D01*
X148044938Y-88089586D01*
X148044936Y-88089596D01*
X148024341Y-88324999D01*
X148024341Y-88325000D01*
X145850499Y-88325000D01*
X145850499Y-87427128D01*
X145844091Y-87367517D01*
X145843002Y-87364598D01*
X145793797Y-87232671D01*
X145793793Y-87232664D01*
X145707547Y-87117455D01*
X145707544Y-87117452D01*
X145592335Y-87031206D01*
X145592328Y-87031202D01*
X145457482Y-86980908D01*
X145457483Y-86980908D01*
X145397883Y-86974501D01*
X145397881Y-86974500D01*
X145397873Y-86974500D01*
X145397865Y-86974500D01*
X145374500Y-86974500D01*
X145307461Y-86954815D01*
X145261706Y-86902011D01*
X145250500Y-86850500D01*
X145250500Y-76265000D01*
X151144341Y-76265000D01*
X151164936Y-76500403D01*
X151164938Y-76500413D01*
X151226094Y-76728655D01*
X151226096Y-76728659D01*
X151226097Y-76728663D01*
X151325965Y-76942830D01*
X151325967Y-76942834D01*
X151434281Y-77097521D01*
X151461505Y-77136401D01*
X151628599Y-77303495D01*
X151725384Y-77371265D01*
X151822165Y-77439032D01*
X151822167Y-77439033D01*
X151822170Y-77439035D01*
X152036337Y-77538903D01*
X152264592Y-77600063D01*
X152452918Y-77616539D01*
X152499999Y-77620659D01*
X152500000Y-77620659D01*
X152500001Y-77620659D01*
X152539234Y-77617226D01*
X152735408Y-77600063D01*
X152963663Y-77538903D01*
X153177830Y-77439035D01*
X153371401Y-77303495D01*
X153538495Y-77136401D01*
X153674035Y-76942830D01*
X153773903Y-76728663D01*
X153835063Y-76500408D01*
X153855659Y-76265000D01*
X153835063Y-76029592D01*
X153773903Y-75801337D01*
X153674035Y-75587171D01*
X153538495Y-75393599D01*
X153416567Y-75271671D01*
X153383084Y-75210351D01*
X153388068Y-75140659D01*
X153429939Y-75084725D01*
X153460915Y-75067810D01*
X153592331Y-75018796D01*
X153707546Y-74932546D01*
X153793796Y-74817331D01*
X153844091Y-74682483D01*
X153850500Y-74622873D01*
X153850499Y-72827128D01*
X153844091Y-72767517D01*
X153793796Y-72632669D01*
X153793795Y-72632668D01*
X153793793Y-72632664D01*
X153707547Y-72517455D01*
X153707544Y-72517452D01*
X153592335Y-72431206D01*
X153592328Y-72431202D01*
X153457482Y-72380908D01*
X153457483Y-72380908D01*
X153397883Y-72374501D01*
X153397881Y-72374500D01*
X153397873Y-72374500D01*
X153397864Y-72374500D01*
X151602129Y-72374500D01*
X151602123Y-72374501D01*
X151542516Y-72380908D01*
X151407671Y-72431202D01*
X151407664Y-72431206D01*
X151292455Y-72517452D01*
X151292452Y-72517455D01*
X151206206Y-72632664D01*
X151206202Y-72632671D01*
X151155908Y-72767517D01*
X151149501Y-72827116D01*
X151149501Y-72827123D01*
X151149500Y-72827135D01*
X151149500Y-74622870D01*
X151149501Y-74622876D01*
X151155908Y-74682483D01*
X151206202Y-74817328D01*
X151206206Y-74817335D01*
X151292452Y-74932544D01*
X151292455Y-74932547D01*
X151407664Y-75018793D01*
X151407671Y-75018797D01*
X151539081Y-75067810D01*
X151595015Y-75109681D01*
X151619432Y-75175145D01*
X151604580Y-75243418D01*
X151583430Y-75271673D01*
X151461503Y-75393600D01*
X151325965Y-75587169D01*
X151325964Y-75587171D01*
X151226098Y-75801335D01*
X151226094Y-75801344D01*
X151164938Y-76029586D01*
X151164936Y-76029596D01*
X151144341Y-76264999D01*
X151144341Y-76265000D01*
X145250500Y-76265000D01*
X145250500Y-75062230D01*
X145270185Y-74995191D01*
X145286819Y-74974549D01*
X158634549Y-61626819D01*
X158695872Y-61593334D01*
X158722230Y-61590500D01*
X159369726Y-61590500D01*
X159436765Y-61610185D01*
X159471300Y-61643376D01*
X159479171Y-61654617D01*
X159479173Y-61654619D01*
X159479174Y-61654620D01*
X159635380Y-61810826D01*
X159635383Y-61810828D01*
X159635384Y-61810829D01*
X159816333Y-61937531D01*
X159816335Y-61937532D01*
X159816338Y-61937534D01*
X160016550Y-62030894D01*
X160229932Y-62088070D01*
X160387123Y-62101822D01*
X160449998Y-62107323D01*
X160450000Y-62107323D01*
X160450002Y-62107323D01*
X160505017Y-62102509D01*
X160670068Y-62088070D01*
X160883450Y-62030894D01*
X161083662Y-61937534D01*
X161264620Y-61810826D01*
X161420826Y-61654620D01*
X161547534Y-61473662D01*
X161640894Y-61273450D01*
X161698070Y-61060068D01*
X161717323Y-60840000D01*
X161713316Y-60794204D01*
X161707934Y-60732677D01*
X161698070Y-60619932D01*
X161640894Y-60406550D01*
X161547534Y-60206339D01*
X161420826Y-60025380D01*
X161264620Y-59869174D01*
X161264616Y-59869171D01*
X161264615Y-59869170D01*
X161083666Y-59742468D01*
X161083662Y-59742466D01*
X161007300Y-59706858D01*
X160883450Y-59649106D01*
X160883447Y-59649105D01*
X160883445Y-59649104D01*
X160670070Y-59591930D01*
X160670062Y-59591929D01*
X160450002Y-59572677D01*
X160449998Y-59572677D01*
X160229937Y-59591929D01*
X160229929Y-59591930D01*
X160016554Y-59649104D01*
X160016543Y-59649108D01*
X159915199Y-59696366D01*
X159846122Y-59706858D01*
X159782338Y-59678338D01*
X159744099Y-59619861D01*
X159743545Y-59549994D01*
X159775112Y-59496305D01*
X161032952Y-58238466D01*
X161082186Y-58164779D01*
X161115084Y-58115545D01*
X161171658Y-57978963D01*
X161194019Y-57866550D01*
X161200500Y-57833970D01*
X161200500Y-56840273D01*
X161220185Y-56773234D01*
X161253380Y-56738696D01*
X161264620Y-56730826D01*
X161420826Y-56574620D01*
X161547534Y-56393662D01*
X161640894Y-56193450D01*
X161698070Y-55980068D01*
X161717323Y-55760000D01*
X161698070Y-55539932D01*
X161640894Y-55326550D01*
X161547534Y-55126339D01*
X161468637Y-55013662D01*
X161420827Y-54945381D01*
X161359665Y-54884219D01*
X161264620Y-54789174D01*
X161264616Y-54789171D01*
X161264615Y-54789170D01*
X161083666Y-54662468D01*
X161083662Y-54662466D01*
X161036457Y-54640454D01*
X160883450Y-54569106D01*
X160883447Y-54569105D01*
X160883445Y-54569104D01*
X160670070Y-54511930D01*
X160670062Y-54511929D01*
X160450002Y-54492677D01*
X160449998Y-54492677D01*
X160229937Y-54511929D01*
X160229929Y-54511930D01*
X160016554Y-54569104D01*
X160016548Y-54569107D01*
X159816340Y-54662465D01*
X159816338Y-54662466D01*
X159635377Y-54789175D01*
X159479175Y-54945377D01*
X159352466Y-55126338D01*
X159352465Y-55126340D01*
X159259107Y-55326548D01*
X159259104Y-55326554D01*
X159201930Y-55539929D01*
X159201929Y-55539937D01*
X159182677Y-55759997D01*
X159182677Y-55760002D01*
X159201929Y-55980062D01*
X159201930Y-55980070D01*
X159259104Y-56193445D01*
X159259105Y-56193447D01*
X159259106Y-56193450D01*
X159352466Y-56393662D01*
X159352468Y-56393666D01*
X159475848Y-56569870D01*
X159479174Y-56574620D01*
X159635380Y-56730826D01*
X159646620Y-56738696D01*
X159690247Y-56793271D01*
X159699500Y-56840273D01*
X159699500Y-57397820D01*
X159679815Y-57464859D01*
X159663181Y-57485501D01*
X153962181Y-63186501D01*
X153900858Y-63219986D01*
X153831166Y-63215002D01*
X153775233Y-63173130D01*
X153750816Y-63107666D01*
X153750500Y-63098820D01*
X153750500Y-60936079D01*
X153721659Y-60791092D01*
X153721658Y-60791091D01*
X153721658Y-60791087D01*
X153686304Y-60705735D01*
X153665087Y-60654511D01*
X153665080Y-60654498D01*
X153582952Y-60531585D01*
X153535822Y-60484455D01*
X153478416Y-60427049D01*
X149048818Y-55997450D01*
X149015333Y-55936127D01*
X149012499Y-55909769D01*
X149012499Y-54950129D01*
X149012498Y-54950123D01*
X149012497Y-54950116D01*
X149006091Y-54890517D01*
X148988800Y-54844158D01*
X148955797Y-54755671D01*
X148955793Y-54755664D01*
X148869547Y-54640455D01*
X148869544Y-54640452D01*
X148754335Y-54554206D01*
X148754328Y-54554202D01*
X148619482Y-54503908D01*
X148619483Y-54503908D01*
X148559883Y-54497501D01*
X148559881Y-54497500D01*
X148559873Y-54497500D01*
X148559864Y-54497500D01*
X146940129Y-54497500D01*
X146940123Y-54497501D01*
X146880516Y-54503908D01*
X146745671Y-54554202D01*
X146745664Y-54554206D01*
X146630455Y-54640452D01*
X146630452Y-54640455D01*
X146544206Y-54755664D01*
X146544202Y-54755671D01*
X146493908Y-54890517D01*
X146488010Y-54945380D01*
X146487501Y-54950123D01*
X146487500Y-54950135D01*
X146487500Y-56569870D01*
X146487501Y-56569876D01*
X146493908Y-56629483D01*
X146544202Y-56764328D01*
X146544206Y-56764335D01*
X146630452Y-56879544D01*
X146630455Y-56879547D01*
X146745664Y-56965793D01*
X146745671Y-56965797D01*
X146880517Y-57016091D01*
X146880516Y-57016091D01*
X146887444Y-57016835D01*
X146940127Y-57022500D01*
X146980079Y-57022499D01*
X147047116Y-57042182D01*
X147092872Y-57094985D01*
X147102817Y-57164143D01*
X147073794Y-57227700D01*
X147051203Y-57248074D01*
X146935375Y-57329177D01*
X146779175Y-57485377D01*
X146652466Y-57666338D01*
X146652465Y-57666340D01*
X146559107Y-57866548D01*
X146559104Y-57866554D01*
X146501930Y-58079929D01*
X146501929Y-58079937D01*
X146482677Y-58299997D01*
X146482677Y-58300002D01*
X146494205Y-58431785D01*
X146480438Y-58500285D01*
X146458358Y-58530272D01*
X144627100Y-60361531D01*
X144627097Y-60361534D01*
X144597019Y-60406549D01*
X144597020Y-60406550D01*
X144544963Y-60484458D01*
X144488393Y-60621032D01*
X144488390Y-60621042D01*
X144459550Y-60766029D01*
X144459550Y-69547819D01*
X144439865Y-69614858D01*
X144423231Y-69635500D01*
X141117050Y-72941680D01*
X141117044Y-72941688D01*
X141067812Y-73015368D01*
X141067813Y-73015369D01*
X141034921Y-73064596D01*
X141034914Y-73064608D01*
X140978342Y-73201186D01*
X140978340Y-73201192D01*
X140949500Y-73346179D01*
X140949500Y-76597820D01*
X140929815Y-76664859D01*
X140913181Y-76685501D01*
X128685501Y-88913181D01*
X128624178Y-88946666D01*
X128597820Y-88949500D01*
X127904202Y-88949500D01*
X127759214Y-88978340D01*
X127759204Y-88978343D01*
X127622633Y-89034912D01*
X127622620Y-89034919D01*
X127499706Y-89117048D01*
X127499702Y-89117051D01*
X122603573Y-94013181D01*
X122542250Y-94046666D01*
X122515892Y-94049500D01*
X116326080Y-94049500D01*
X116181092Y-94078340D01*
X116181082Y-94078343D01*
X116044511Y-94134912D01*
X116044498Y-94134919D01*
X115921584Y-94217048D01*
X115921580Y-94217051D01*
X114987050Y-95151580D01*
X114987044Y-95151588D01*
X114937812Y-95225268D01*
X114937813Y-95225269D01*
X114904921Y-95274496D01*
X114904914Y-95274508D01*
X114848342Y-95411086D01*
X114848340Y-95411092D01*
X114819500Y-95556079D01*
X114819500Y-95879726D01*
X114799815Y-95946765D01*
X114766625Y-95981299D01*
X114755389Y-95989166D01*
X114755382Y-95989172D01*
X114599172Y-96145381D01*
X114472466Y-96326338D01*
X114472465Y-96326340D01*
X114379107Y-96526548D01*
X114379104Y-96526554D01*
X114321930Y-96739929D01*
X114321929Y-96739937D01*
X114302677Y-96959997D01*
X114302677Y-96960002D01*
X112500000Y-96960002D01*
X112500000Y-93351362D01*
X112519685Y-93284323D01*
X112536319Y-93263681D01*
X113963681Y-91836319D01*
X114025004Y-91802834D01*
X114051362Y-91800000D01*
X123500000Y-91800000D01*
X126100000Y-89200000D01*
X126100000Y-62809870D01*
X127937500Y-62809870D01*
X127937501Y-62809876D01*
X127943908Y-62869483D01*
X127994202Y-63004328D01*
X127994206Y-63004335D01*
X128080452Y-63119544D01*
X128080455Y-63119547D01*
X128195664Y-63205793D01*
X128195671Y-63205797D01*
X128330517Y-63256091D01*
X128330516Y-63256091D01*
X128337444Y-63256835D01*
X128390127Y-63262500D01*
X130009872Y-63262499D01*
X130069483Y-63256091D01*
X130204331Y-63205796D01*
X130319546Y-63119546D01*
X130405796Y-63004331D01*
X130456091Y-62869483D01*
X130462500Y-62809873D01*
X130462499Y-62769920D01*
X130482182Y-62702884D01*
X130534985Y-62657128D01*
X130604143Y-62647183D01*
X130667700Y-62676206D01*
X130688073Y-62698796D01*
X130769174Y-62814620D01*
X130925380Y-62970826D01*
X131086623Y-63083729D01*
X131130248Y-63138306D01*
X131139500Y-63185304D01*
X131139500Y-70953330D01*
X131139499Y-70953348D01*
X131139499Y-71119054D01*
X131139498Y-71119054D01*
X131180423Y-71271785D01*
X131209358Y-71321900D01*
X131209359Y-71321904D01*
X131209360Y-71321904D01*
X131259479Y-71408714D01*
X131259481Y-71408717D01*
X131378349Y-71527585D01*
X131378355Y-71527590D01*
X133940139Y-74089374D01*
X133940149Y-74089385D01*
X133944479Y-74093715D01*
X133944480Y-74093716D01*
X134056284Y-74205520D01*
X134056286Y-74205521D01*
X134056290Y-74205524D01*
X134193209Y-74284573D01*
X134193216Y-74284577D01*
X134305019Y-74314534D01*
X134345942Y-74325500D01*
X134345943Y-74325500D01*
X136025501Y-74325500D01*
X136092540Y-74345185D01*
X136138295Y-74397989D01*
X136149501Y-74449500D01*
X136149501Y-74622876D01*
X136155908Y-74682483D01*
X136206202Y-74817328D01*
X136206206Y-74817335D01*
X136292452Y-74932544D01*
X136292455Y-74932547D01*
X136407664Y-75018793D01*
X136407671Y-75018797D01*
X136539081Y-75067810D01*
X136595015Y-75109681D01*
X136619432Y-75175145D01*
X136604580Y-75243418D01*
X136583430Y-75271673D01*
X136461503Y-75393600D01*
X136325965Y-75587169D01*
X136325964Y-75587171D01*
X136226098Y-75801335D01*
X136226094Y-75801344D01*
X136164938Y-76029586D01*
X136164936Y-76029596D01*
X136144341Y-76264999D01*
X136144341Y-76265000D01*
X136164936Y-76500403D01*
X136164938Y-76500413D01*
X136226094Y-76728655D01*
X136226096Y-76728659D01*
X136226097Y-76728663D01*
X136325965Y-76942830D01*
X136325967Y-76942834D01*
X136434281Y-77097521D01*
X136461505Y-77136401D01*
X136628599Y-77303495D01*
X136725384Y-77371265D01*
X136822165Y-77439032D01*
X136822167Y-77439033D01*
X136822170Y-77439035D01*
X137036337Y-77538903D01*
X137264592Y-77600063D01*
X137452918Y-77616539D01*
X137499999Y-77620659D01*
X137500000Y-77620659D01*
X137500001Y-77620659D01*
X137539234Y-77617226D01*
X137735408Y-77600063D01*
X137963663Y-77538903D01*
X138177830Y-77439035D01*
X138371401Y-77303495D01*
X138538495Y-77136401D01*
X138674035Y-76942830D01*
X138773903Y-76728663D01*
X138835063Y-76500408D01*
X138855659Y-76265000D01*
X138835063Y-76029592D01*
X138773903Y-75801337D01*
X138674035Y-75587171D01*
X138538495Y-75393599D01*
X138416567Y-75271671D01*
X138383084Y-75210351D01*
X138388068Y-75140659D01*
X138429939Y-75084725D01*
X138460915Y-75067810D01*
X138592331Y-75018796D01*
X138707546Y-74932546D01*
X138793796Y-74817331D01*
X138844091Y-74682483D01*
X138850500Y-74622873D01*
X138850499Y-72827128D01*
X138844091Y-72767517D01*
X138793796Y-72632669D01*
X138793795Y-72632668D01*
X138793793Y-72632664D01*
X138707547Y-72517455D01*
X138707544Y-72517452D01*
X138592335Y-72431206D01*
X138592328Y-72431202D01*
X138457482Y-72380908D01*
X138457483Y-72380908D01*
X138397883Y-72374501D01*
X138397881Y-72374500D01*
X138397873Y-72374500D01*
X138397864Y-72374500D01*
X136602129Y-72374500D01*
X136602123Y-72374501D01*
X136542516Y-72380908D01*
X136407671Y-72431202D01*
X136407664Y-72431206D01*
X136292455Y-72517452D01*
X136292452Y-72517455D01*
X136206206Y-72632664D01*
X136206202Y-72632671D01*
X136155908Y-72767517D01*
X136149501Y-72827116D01*
X136149501Y-72827123D01*
X136149500Y-72827135D01*
X136149500Y-73000500D01*
X136129815Y-73067539D01*
X136077011Y-73113294D01*
X136025500Y-73124500D01*
X134725097Y-73124500D01*
X134658058Y-73104815D01*
X134637416Y-73088181D01*
X132376819Y-70827584D01*
X132343334Y-70766261D01*
X132340500Y-70739903D01*
X132340500Y-63185304D01*
X132360185Y-63118265D01*
X132393375Y-63083730D01*
X132554620Y-62970826D01*
X132710826Y-62814620D01*
X132837534Y-62633662D01*
X132897618Y-62504811D01*
X132943790Y-62452371D01*
X133010983Y-62433219D01*
X133077865Y-62453435D01*
X133122382Y-62504811D01*
X133182464Y-62633658D01*
X133182468Y-62633666D01*
X133309170Y-62814615D01*
X133309175Y-62814621D01*
X133465378Y-62970824D01*
X133465384Y-62970829D01*
X133646333Y-63097531D01*
X133646335Y-63097532D01*
X133646338Y-63097534D01*
X133846550Y-63190894D01*
X134059932Y-63248070D01*
X134217123Y-63261822D01*
X134279998Y-63267323D01*
X134280000Y-63267323D01*
X134280002Y-63267323D01*
X134335151Y-63262498D01*
X134500068Y-63248070D01*
X134713450Y-63190894D01*
X134913662Y-63097534D01*
X135094620Y-62970826D01*
X135250826Y-62814620D01*
X135377534Y-62633662D01*
X135437618Y-62504811D01*
X135483790Y-62452371D01*
X135550983Y-62433219D01*
X135617865Y-62453435D01*
X135662382Y-62504811D01*
X135722464Y-62633658D01*
X135722468Y-62633666D01*
X135849170Y-62814615D01*
X135849175Y-62814621D01*
X136005378Y-62970824D01*
X136005384Y-62970829D01*
X136186333Y-63097531D01*
X136186335Y-63097532D01*
X136186338Y-63097534D01*
X136386550Y-63190894D01*
X136599932Y-63248070D01*
X136757123Y-63261822D01*
X136819998Y-63267323D01*
X136820000Y-63267323D01*
X136820002Y-63267323D01*
X136875151Y-63262498D01*
X137040068Y-63248070D01*
X137253450Y-63190894D01*
X137453662Y-63097534D01*
X137634620Y-62970826D01*
X137790826Y-62814620D01*
X137917534Y-62633662D01*
X137977618Y-62504811D01*
X138023790Y-62452371D01*
X138090983Y-62433219D01*
X138157865Y-62453435D01*
X138202382Y-62504811D01*
X138262464Y-62633658D01*
X138262468Y-62633666D01*
X138389170Y-62814615D01*
X138389175Y-62814621D01*
X138545378Y-62970824D01*
X138545384Y-62970829D01*
X138726333Y-63097531D01*
X138726335Y-63097532D01*
X138726338Y-63097534D01*
X138926550Y-63190894D01*
X139139932Y-63248070D01*
X139297123Y-63261822D01*
X139359998Y-63267323D01*
X139360000Y-63267323D01*
X139360002Y-63267323D01*
X139415151Y-63262498D01*
X139580068Y-63248070D01*
X139793450Y-63190894D01*
X139993662Y-63097534D01*
X140174620Y-62970826D01*
X140330826Y-62814620D01*
X140457534Y-62633662D01*
X140517894Y-62504218D01*
X140564066Y-62451779D01*
X140631259Y-62432627D01*
X140698141Y-62452843D01*
X140742658Y-62504219D01*
X140802898Y-62633405D01*
X140802901Y-62633411D01*
X140848258Y-62698187D01*
X140848259Y-62698188D01*
X141519000Y-62027447D01*
X141519000Y-62050160D01*
X141544964Y-62147061D01*
X141595124Y-62233940D01*
X141666060Y-62304876D01*
X141752939Y-62355036D01*
X141849840Y-62381000D01*
X141872553Y-62381000D01*
X141201810Y-63051740D01*
X141266590Y-63097099D01*
X141266592Y-63097100D01*
X141466715Y-63190419D01*
X141466729Y-63190424D01*
X141680013Y-63247573D01*
X141680023Y-63247575D01*
X141899999Y-63266821D01*
X141900001Y-63266821D01*
X142119976Y-63247575D01*
X142119986Y-63247573D01*
X142333270Y-63190424D01*
X142333284Y-63190419D01*
X142533407Y-63097100D01*
X142533417Y-63097094D01*
X142598188Y-63051741D01*
X141927448Y-62381000D01*
X141950160Y-62381000D01*
X142047061Y-62355036D01*
X142133940Y-62304876D01*
X142204876Y-62233940D01*
X142255036Y-62147061D01*
X142281000Y-62050160D01*
X142281000Y-62027447D01*
X142951741Y-62698188D01*
X142997094Y-62633417D01*
X142997100Y-62633407D01*
X143090419Y-62433284D01*
X143090424Y-62433270D01*
X143147573Y-62219986D01*
X143147575Y-62219976D01*
X143166821Y-62000000D01*
X143166821Y-61999999D01*
X143147575Y-61780023D01*
X143147573Y-61780013D01*
X143090424Y-61566729D01*
X143090420Y-61566720D01*
X142997096Y-61366586D01*
X142951741Y-61301811D01*
X142951740Y-61301810D01*
X142281000Y-61972551D01*
X142281000Y-61949840D01*
X142255036Y-61852939D01*
X142204876Y-61766060D01*
X142133940Y-61695124D01*
X142047061Y-61644964D01*
X141950160Y-61619000D01*
X141927448Y-61619000D01*
X142598188Y-60948259D01*
X142598187Y-60948258D01*
X142533411Y-60902901D01*
X142533405Y-60902898D01*
X142333284Y-60809580D01*
X142333270Y-60809575D01*
X142119986Y-60752426D01*
X142119976Y-60752424D01*
X141900001Y-60733179D01*
X141899999Y-60733179D01*
X141680023Y-60752424D01*
X141680013Y-60752426D01*
X141466729Y-60809575D01*
X141466720Y-60809579D01*
X141266590Y-60902901D01*
X141201811Y-60948258D01*
X141872553Y-61619000D01*
X141849840Y-61619000D01*
X141752939Y-61644964D01*
X141666060Y-61695124D01*
X141595124Y-61766060D01*
X141544964Y-61852939D01*
X141519000Y-61949840D01*
X141519000Y-61972553D01*
X140848258Y-61301811D01*
X140802901Y-61366590D01*
X140742658Y-61495781D01*
X140696485Y-61548220D01*
X140629292Y-61567372D01*
X140562411Y-61547156D01*
X140517894Y-61495781D01*
X140502906Y-61463639D01*
X140457534Y-61366339D01*
X140362125Y-61230080D01*
X140330827Y-61185381D01*
X140275962Y-61130516D01*
X140174620Y-61029174D01*
X140174616Y-61029171D01*
X140174615Y-61029170D01*
X139993666Y-60902468D01*
X139993662Y-60902466D01*
X139946457Y-60880454D01*
X139793450Y-60809106D01*
X139793447Y-60809105D01*
X139793445Y-60809104D01*
X139580070Y-60751930D01*
X139580062Y-60751929D01*
X139360002Y-60732677D01*
X139359998Y-60732677D01*
X139139937Y-60751929D01*
X139139929Y-60751930D01*
X138926554Y-60809104D01*
X138926548Y-60809107D01*
X138726340Y-60902465D01*
X138726338Y-60902466D01*
X138545377Y-61029175D01*
X138389175Y-61185377D01*
X138262466Y-61366338D01*
X138262465Y-61366340D01*
X138202382Y-61495189D01*
X138156209Y-61547628D01*
X138089016Y-61566780D01*
X138022135Y-61546564D01*
X137977618Y-61495189D01*
X137959059Y-61455390D01*
X137917534Y-61366339D01*
X137822125Y-61230080D01*
X137790827Y-61185381D01*
X137735962Y-61130516D01*
X137634620Y-61029174D01*
X137634616Y-61029171D01*
X137634615Y-61029170D01*
X137453666Y-60902468D01*
X137453662Y-60902466D01*
X137406457Y-60880454D01*
X137253450Y-60809106D01*
X137253447Y-60809105D01*
X137253445Y-60809104D01*
X137040070Y-60751930D01*
X137040062Y-60751929D01*
X136820002Y-60732677D01*
X136819998Y-60732677D01*
X136599937Y-60751929D01*
X136599929Y-60751930D01*
X136386554Y-60809104D01*
X136386548Y-60809107D01*
X136186340Y-60902465D01*
X136186338Y-60902466D01*
X136005377Y-61029175D01*
X135849175Y-61185377D01*
X135722466Y-61366338D01*
X135722465Y-61366340D01*
X135662382Y-61495189D01*
X135616209Y-61547628D01*
X135549016Y-61566780D01*
X135482135Y-61546564D01*
X135437618Y-61495189D01*
X135419059Y-61455390D01*
X135377534Y-61366339D01*
X135282125Y-61230080D01*
X135250827Y-61185381D01*
X135195962Y-61130516D01*
X135094620Y-61029174D01*
X135094616Y-61029171D01*
X135094615Y-61029170D01*
X134913666Y-60902468D01*
X134913662Y-60902466D01*
X134866457Y-60880454D01*
X134713450Y-60809106D01*
X134713447Y-60809105D01*
X134713445Y-60809104D01*
X134500070Y-60751930D01*
X134500062Y-60751929D01*
X134280002Y-60732677D01*
X134279998Y-60732677D01*
X134059937Y-60751929D01*
X134059929Y-60751930D01*
X133846554Y-60809104D01*
X133846548Y-60809107D01*
X133646340Y-60902465D01*
X133646338Y-60902466D01*
X133465377Y-61029175D01*
X133309175Y-61185377D01*
X133182466Y-61366338D01*
X133182465Y-61366340D01*
X133122382Y-61495189D01*
X133076209Y-61547628D01*
X133009016Y-61566780D01*
X132942135Y-61546564D01*
X132897618Y-61495189D01*
X132879059Y-61455390D01*
X132837534Y-61366339D01*
X132742125Y-61230080D01*
X132710827Y-61185381D01*
X132655962Y-61130516D01*
X132554620Y-61029174D01*
X132554616Y-61029171D01*
X132554615Y-61029170D01*
X132373666Y-60902468D01*
X132373662Y-60902466D01*
X132326457Y-60880454D01*
X132173450Y-60809106D01*
X132173447Y-60809105D01*
X132173445Y-60809104D01*
X131960070Y-60751930D01*
X131960062Y-60751929D01*
X131740002Y-60732677D01*
X131739998Y-60732677D01*
X131519937Y-60751929D01*
X131519929Y-60751930D01*
X131306554Y-60809104D01*
X131306548Y-60809107D01*
X131106340Y-60902465D01*
X131106338Y-60902466D01*
X130925377Y-61029175D01*
X130769175Y-61185377D01*
X130688074Y-61301203D01*
X130633497Y-61344828D01*
X130563999Y-61352022D01*
X130501644Y-61320499D01*
X130466230Y-61260270D01*
X130462499Y-61230080D01*
X130462499Y-61190129D01*
X130462498Y-61190123D01*
X130462497Y-61190116D01*
X130456091Y-61130517D01*
X130429815Y-61060068D01*
X130405797Y-60995671D01*
X130405793Y-60995664D01*
X130319547Y-60880455D01*
X130319544Y-60880452D01*
X130204335Y-60794206D01*
X130204328Y-60794202D01*
X130069482Y-60743908D01*
X130069483Y-60743908D01*
X130009883Y-60737501D01*
X130009881Y-60737500D01*
X130009873Y-60737500D01*
X130009864Y-60737500D01*
X128390129Y-60737500D01*
X128390123Y-60737501D01*
X128330516Y-60743908D01*
X128195671Y-60794202D01*
X128195664Y-60794206D01*
X128080455Y-60880452D01*
X128080452Y-60880455D01*
X127994206Y-60995664D01*
X127994202Y-60995671D01*
X127943908Y-61130517D01*
X127938010Y-61185380D01*
X127937501Y-61190123D01*
X127937500Y-61190135D01*
X127937500Y-62809870D01*
X126100000Y-62809870D01*
X126100000Y-54380002D01*
X127932677Y-54380002D01*
X127951929Y-54600062D01*
X127951930Y-54600070D01*
X128009104Y-54813445D01*
X128009105Y-54813447D01*
X128009106Y-54813450D01*
X128072839Y-54950127D01*
X128102466Y-55013662D01*
X128102468Y-55013666D01*
X128229170Y-55194615D01*
X128229175Y-55194621D01*
X128385378Y-55350824D01*
X128385384Y-55350829D01*
X128566333Y-55477531D01*
X128566335Y-55477532D01*
X128566338Y-55477534D01*
X128766550Y-55570894D01*
X128979932Y-55628070D01*
X129137123Y-55641822D01*
X129199998Y-55647323D01*
X129200000Y-55647323D01*
X129200002Y-55647323D01*
X129255017Y-55642509D01*
X129420068Y-55628070D01*
X129633450Y-55570894D01*
X129833662Y-55477534D01*
X130014620Y-55350826D01*
X130170826Y-55194620D01*
X130297534Y-55013662D01*
X130357894Y-54884218D01*
X130404066Y-54831779D01*
X130471259Y-54812627D01*
X130538141Y-54832843D01*
X130582658Y-54884219D01*
X130642898Y-55013405D01*
X130642901Y-55013411D01*
X130688258Y-55078187D01*
X130688259Y-55078188D01*
X131359000Y-54407447D01*
X131359000Y-54430160D01*
X131384964Y-54527061D01*
X131435124Y-54613940D01*
X131506060Y-54684876D01*
X131592939Y-54735036D01*
X131689840Y-54761000D01*
X131712553Y-54761000D01*
X131041810Y-55431740D01*
X131106590Y-55477099D01*
X131106592Y-55477100D01*
X131306715Y-55570419D01*
X131306729Y-55570424D01*
X131520013Y-55627573D01*
X131520023Y-55627575D01*
X131739999Y-55646821D01*
X131740001Y-55646821D01*
X131959976Y-55627575D01*
X131959986Y-55627573D01*
X132173270Y-55570424D01*
X132173284Y-55570419D01*
X132373407Y-55477100D01*
X132373417Y-55477094D01*
X132438188Y-55431741D01*
X131767448Y-54761000D01*
X131790160Y-54761000D01*
X131887061Y-54735036D01*
X131973940Y-54684876D01*
X132044876Y-54613940D01*
X132095036Y-54527061D01*
X132121000Y-54430160D01*
X132121000Y-54407447D01*
X132791741Y-55078188D01*
X132837094Y-55013417D01*
X132837097Y-55013412D01*
X132887340Y-54905665D01*
X132933512Y-54853225D01*
X133000705Y-54834072D01*
X133067587Y-54854287D01*
X133112105Y-54905663D01*
X133162466Y-55013662D01*
X133162468Y-55013666D01*
X133289170Y-55194615D01*
X133289175Y-55194621D01*
X133445378Y-55350824D01*
X133445384Y-55350829D01*
X133626333Y-55477531D01*
X133626335Y-55477532D01*
X133626338Y-55477534D01*
X133826550Y-55570894D01*
X134039932Y-55628070D01*
X134197123Y-55641822D01*
X134259998Y-55647323D01*
X134260000Y-55647323D01*
X134260002Y-55647323D01*
X134315017Y-55642509D01*
X134480068Y-55628070D01*
X134693450Y-55570894D01*
X134893662Y-55477534D01*
X135074620Y-55350826D01*
X135230826Y-55194620D01*
X135357534Y-55013662D01*
X135432618Y-54852642D01*
X135478790Y-54800203D01*
X135545983Y-54781051D01*
X135612865Y-54801266D01*
X135657382Y-54852643D01*
X135732464Y-55013658D01*
X135732468Y-55013666D01*
X135859170Y-55194615D01*
X135859175Y-55194621D01*
X136015378Y-55350824D01*
X136015384Y-55350829D01*
X136196333Y-55477531D01*
X136196335Y-55477532D01*
X136196338Y-55477534D01*
X136396550Y-55570894D01*
X136609932Y-55628070D01*
X136767123Y-55641822D01*
X136829998Y-55647323D01*
X136830000Y-55647323D01*
X136830002Y-55647323D01*
X136885017Y-55642509D01*
X137050068Y-55628070D01*
X137263450Y-55570894D01*
X137463662Y-55477534D01*
X137644620Y-55350826D01*
X137800826Y-55194620D01*
X137927534Y-55013662D01*
X137982618Y-54895532D01*
X138028790Y-54843094D01*
X138095984Y-54823942D01*
X138162865Y-54844158D01*
X138207381Y-54895532D01*
X138232839Y-54950127D01*
X138262466Y-55013662D01*
X138262468Y-55013666D01*
X138389170Y-55194615D01*
X138389175Y-55194621D01*
X138545378Y-55350824D01*
X138545384Y-55350829D01*
X138726333Y-55477531D01*
X138726335Y-55477532D01*
X138726338Y-55477534D01*
X138926550Y-55570894D01*
X139139932Y-55628070D01*
X139297123Y-55641822D01*
X139359998Y-55647323D01*
X139360000Y-55647323D01*
X139360002Y-55647323D01*
X139415017Y-55642509D01*
X139580068Y-55628070D01*
X139793450Y-55570894D01*
X139993662Y-55477534D01*
X140174620Y-55350826D01*
X140330826Y-55194620D01*
X140457534Y-55013662D01*
X140512618Y-54895532D01*
X140558790Y-54843094D01*
X140625984Y-54823942D01*
X140692865Y-54844158D01*
X140737381Y-54895532D01*
X140762839Y-54950127D01*
X140792466Y-55013662D01*
X140792468Y-55013666D01*
X140919170Y-55194615D01*
X140919175Y-55194621D01*
X141075378Y-55350824D01*
X141075384Y-55350829D01*
X141256333Y-55477531D01*
X141256335Y-55477532D01*
X141256338Y-55477534D01*
X141456550Y-55570894D01*
X141669932Y-55628070D01*
X141827123Y-55641822D01*
X141889998Y-55647323D01*
X141890000Y-55647323D01*
X141890002Y-55647323D01*
X141945017Y-55642509D01*
X142110068Y-55628070D01*
X142323450Y-55570894D01*
X142523662Y-55477534D01*
X142704620Y-55350826D01*
X142860826Y-55194620D01*
X142987534Y-55013662D01*
X143080894Y-54813450D01*
X143138070Y-54600068D01*
X143157323Y-54380000D01*
X143138070Y-54159932D01*
X143080894Y-53946550D01*
X142987534Y-53746339D01*
X142860826Y-53565380D01*
X142704620Y-53409174D01*
X142704616Y-53409171D01*
X142704615Y-53409170D01*
X142523666Y-53282468D01*
X142523662Y-53282466D01*
X142483377Y-53263681D01*
X142323450Y-53189106D01*
X142323447Y-53189105D01*
X142323445Y-53189104D01*
X142110070Y-53131930D01*
X142110062Y-53131929D01*
X141890002Y-53112677D01*
X141889998Y-53112677D01*
X141669937Y-53131929D01*
X141669929Y-53131930D01*
X141456554Y-53189104D01*
X141456548Y-53189107D01*
X141256340Y-53282465D01*
X141256338Y-53282466D01*
X141075377Y-53409175D01*
X140919175Y-53565377D01*
X140792466Y-53746338D01*
X140792465Y-53746340D01*
X140737382Y-53864467D01*
X140691210Y-53916906D01*
X140624016Y-53936058D01*
X140557135Y-53915842D01*
X140512618Y-53864467D01*
X140457651Y-53746590D01*
X140457534Y-53746339D01*
X140330826Y-53565380D01*
X140174620Y-53409174D01*
X140174616Y-53409171D01*
X140174615Y-53409170D01*
X139993666Y-53282468D01*
X139993662Y-53282466D01*
X139953377Y-53263681D01*
X139793450Y-53189106D01*
X139793447Y-53189105D01*
X139793445Y-53189104D01*
X139580070Y-53131930D01*
X139580062Y-53131929D01*
X139360002Y-53112677D01*
X139359998Y-53112677D01*
X139139937Y-53131929D01*
X139139929Y-53131930D01*
X138926554Y-53189104D01*
X138926548Y-53189107D01*
X138726340Y-53282465D01*
X138726338Y-53282466D01*
X138545377Y-53409175D01*
X138389175Y-53565377D01*
X138262466Y-53746338D01*
X138262465Y-53746340D01*
X138207382Y-53864467D01*
X138161210Y-53916906D01*
X138094016Y-53936058D01*
X138027135Y-53915842D01*
X137982618Y-53864467D01*
X137927651Y-53746590D01*
X137927534Y-53746339D01*
X137800826Y-53565380D01*
X137644620Y-53409174D01*
X137644616Y-53409171D01*
X137644615Y-53409170D01*
X137463666Y-53282468D01*
X137463662Y-53282466D01*
X137423377Y-53263681D01*
X137263450Y-53189106D01*
X137263447Y-53189105D01*
X137263445Y-53189104D01*
X137050070Y-53131930D01*
X137050062Y-53131929D01*
X136830002Y-53112677D01*
X136829998Y-53112677D01*
X136609937Y-53131929D01*
X136609929Y-53131930D01*
X136396554Y-53189104D01*
X136396548Y-53189107D01*
X136196340Y-53282465D01*
X136196338Y-53282466D01*
X136015377Y-53409175D01*
X135859175Y-53565377D01*
X135732466Y-53746338D01*
X135732465Y-53746340D01*
X135657382Y-53907357D01*
X135611210Y-53959796D01*
X135544016Y-53978948D01*
X135477135Y-53958732D01*
X135432618Y-53907357D01*
X135357651Y-53746590D01*
X135357534Y-53746339D01*
X135230826Y-53565380D01*
X135074620Y-53409174D01*
X135074616Y-53409171D01*
X135074615Y-53409170D01*
X134893666Y-53282468D01*
X134893662Y-53282466D01*
X134853377Y-53263681D01*
X134693450Y-53189106D01*
X134693447Y-53189105D01*
X134693445Y-53189104D01*
X134480070Y-53131930D01*
X134480062Y-53131929D01*
X134260002Y-53112677D01*
X134259998Y-53112677D01*
X134039937Y-53131929D01*
X134039929Y-53131930D01*
X133826554Y-53189104D01*
X133826548Y-53189107D01*
X133626340Y-53282465D01*
X133626338Y-53282466D01*
X133445377Y-53409175D01*
X133289175Y-53565377D01*
X133162467Y-53746337D01*
X133112105Y-53854337D01*
X133065932Y-53906776D01*
X132998738Y-53925927D01*
X132931857Y-53905711D01*
X132887341Y-53854335D01*
X132837098Y-53746589D01*
X132837097Y-53746587D01*
X132791741Y-53681811D01*
X132791740Y-53681810D01*
X132121000Y-54352551D01*
X132121000Y-54329840D01*
X132095036Y-54232939D01*
X132044876Y-54146060D01*
X131973940Y-54075124D01*
X131887061Y-54024964D01*
X131790160Y-53999000D01*
X131767448Y-53999000D01*
X132438188Y-53328259D01*
X132438187Y-53328258D01*
X132373411Y-53282901D01*
X132373405Y-53282898D01*
X132173284Y-53189580D01*
X132173270Y-53189575D01*
X131959986Y-53132426D01*
X131959976Y-53132424D01*
X131740001Y-53113179D01*
X131739999Y-53113179D01*
X131520023Y-53132424D01*
X131520013Y-53132426D01*
X131306729Y-53189575D01*
X131306720Y-53189579D01*
X131106590Y-53282901D01*
X131041811Y-53328258D01*
X131712553Y-53999000D01*
X131689840Y-53999000D01*
X131592939Y-54024964D01*
X131506060Y-54075124D01*
X131435124Y-54146060D01*
X131384964Y-54232939D01*
X131359000Y-54329840D01*
X131359000Y-54352553D01*
X130688258Y-53681811D01*
X130642901Y-53746590D01*
X130582658Y-53875781D01*
X130536485Y-53928220D01*
X130469292Y-53947372D01*
X130402411Y-53927156D01*
X130357894Y-53875781D01*
X130297651Y-53746590D01*
X130297534Y-53746339D01*
X130170826Y-53565380D01*
X130014620Y-53409174D01*
X130014616Y-53409171D01*
X130014615Y-53409170D01*
X129833666Y-53282468D01*
X129833662Y-53282466D01*
X129793377Y-53263681D01*
X129633450Y-53189106D01*
X129633447Y-53189105D01*
X129633445Y-53189104D01*
X129420070Y-53131930D01*
X129420062Y-53131929D01*
X129200002Y-53112677D01*
X129199998Y-53112677D01*
X128979937Y-53131929D01*
X128979929Y-53131930D01*
X128766554Y-53189104D01*
X128766548Y-53189107D01*
X128566340Y-53282465D01*
X128566338Y-53282466D01*
X128385377Y-53409175D01*
X128229175Y-53565377D01*
X128102466Y-53746338D01*
X128102465Y-53746340D01*
X128009107Y-53946548D01*
X128009104Y-53946554D01*
X127951930Y-54159929D01*
X127951929Y-54159937D01*
X127932677Y-54379997D01*
X127932677Y-54380002D01*
X126100000Y-54380002D01*
X126100000Y-51451362D01*
X126119685Y-51384323D01*
X126136319Y-51363681D01*
X126963181Y-50536819D01*
X127024504Y-50503334D01*
X127050862Y-50500500D01*
X163449138Y-50500500D01*
X163516177Y-50520185D01*
G37*
%TD.AperFunction*%
%TD*%
M02*
