%TF.GenerationSoftware,KiCad,Pcbnew,8.0.6*%
%TF.CreationDate,2024-12-12T22:55:36+09:00*%
%TF.ProjectId,basic_motor,62617369-635f-46d6-9f74-6f722e6b6963,rev?*%
%TF.SameCoordinates,Original*%
%TF.FileFunction,Soldermask,Bot*%
%TF.FilePolarity,Negative*%
%FSLAX46Y46*%
G04 Gerber Fmt 4.6, Leading zero omitted, Abs format (unit mm)*
G04 Created by KiCad (PCBNEW 8.0.6) date 2024-12-12 22:55:36*
%MOMM*%
%LPD*%
G01*
G04 APERTURE LIST*
G04 Aperture macros list*
%AMRoundRect*
0 Rectangle with rounded corners*
0 $1 Rounding radius*
0 $2 $3 $4 $5 $6 $7 $8 $9 X,Y pos of 4 corners*
0 Add a 4 corners polygon primitive as box body*
4,1,4,$2,$3,$4,$5,$6,$7,$8,$9,$2,$3,0*
0 Add four circle primitives for the rounded corners*
1,1,$1+$1,$2,$3*
1,1,$1+$1,$4,$5*
1,1,$1+$1,$6,$7*
1,1,$1+$1,$8,$9*
0 Add four rect primitives between the rounded corners*
20,1,$1+$1,$2,$3,$4,$5,0*
20,1,$1+$1,$4,$5,$6,$7,0*
20,1,$1+$1,$6,$7,$8,$9,0*
20,1,$1+$1,$8,$9,$2,$3,0*%
G04 Aperture macros list end*
%ADD10C,3.200000*%
%ADD11R,1.700000X1.700000*%
%ADD12O,1.700000X1.700000*%
%ADD13R,1.524000X1.524000*%
%ADD14C,1.524000*%
%ADD15RoundRect,0.250000X-0.350000X-0.625000X0.350000X-0.625000X0.350000X0.625000X-0.350000X0.625000X0*%
%ADD16O,1.200000X1.750000*%
G04 APERTURE END LIST*
D10*
%TO.C,REF\u002A\u002A*%
X105000000Y-85000000D03*
%TD*%
%TO.C,REF\u002A\u002A*%
X114500000Y-62100000D03*
%TD*%
%TO.C,REF\u002A\u002A*%
X121500000Y-88100000D03*
%TD*%
%TO.C,REF\u002A\u002A*%
X185000000Y-85000000D03*
%TD*%
D11*
%TO.C,J3*%
X144500000Y-88325000D03*
D12*
X141960000Y-88325000D03*
%TD*%
D10*
%TO.C,REF\u002A\u002A*%
X168500000Y-88200000D03*
%TD*%
D13*
%TO.C,U2*%
X129200000Y-62000000D03*
D14*
X131740000Y-62000000D03*
X134280000Y-62000000D03*
X136820000Y-62000000D03*
X139360000Y-62000000D03*
X141900000Y-62000000D03*
X129200000Y-54380000D03*
X131740000Y-54380000D03*
X134260000Y-54380000D03*
X136830000Y-54380000D03*
X139360000Y-54380000D03*
X141890000Y-54380000D03*
%TD*%
D10*
%TO.C,REF\u002A\u002A*%
X185000000Y-65000000D03*
%TD*%
D13*
%TO.C,U1*%
X147750000Y-55760000D03*
D14*
X147750000Y-58300000D03*
X147750000Y-60840000D03*
X160450000Y-55760000D03*
X160450000Y-60840000D03*
%TD*%
D10*
%TO.C,REF\u002A\u002A*%
X114500000Y-88100000D03*
%TD*%
%TO.C,REF\u002A\u002A*%
X105000000Y-65000000D03*
%TD*%
D11*
%TO.C,J5*%
X137500000Y-73725000D03*
D12*
X137500000Y-76265000D03*
%TD*%
D14*
%TO.C,SW1*%
X115570000Y-96960000D03*
X120560000Y-96960000D03*
X118060000Y-96960000D03*
%TD*%
D15*
%TO.C,J2*%
X127500000Y-92150000D03*
D16*
X129500000Y-92150000D03*
%TD*%
D10*
%TO.C,REF\u002A\u002A*%
X175500000Y-88200000D03*
%TD*%
D11*
%TO.C,J4*%
X162080000Y-88325000D03*
D12*
X159540000Y-88325000D03*
X157000000Y-88325000D03*
X154460000Y-88325000D03*
X151920000Y-88325000D03*
X149380000Y-88325000D03*
%TD*%
D15*
%TO.C,J1*%
X135000000Y-92150000D03*
D16*
X137000000Y-92150000D03*
%TD*%
D10*
%TO.C,REF\u002A\u002A*%
X175500000Y-62100000D03*
%TD*%
%TO.C,REF\u002A\u002A*%
X168500000Y-62100000D03*
%TD*%
D11*
%TO.C,J6*%
X152500000Y-73725000D03*
D12*
X152500000Y-76265000D03*
%TD*%
D10*
%TO.C,REF\u002A\u002A*%
X121500000Y-62100000D03*
%TD*%
M02*
