%TF.GenerationSoftware,KiCad,Pcbnew,8.0.6*%
%TF.CreationDate,2024-12-12T22:55:37+09:00*%
%TF.ProjectId,basic_motor,62617369-635f-46d6-9f74-6f722e6b6963,rev?*%
%TF.SameCoordinates,Original*%
%TF.FileFunction,Profile,NP*%
%FSLAX46Y46*%
G04 Gerber Fmt 4.6, Leading zero omitted, Abs format (unit mm)*
G04 Created by KiCad (PCBNEW 8.0.6) date 2024-12-12 22:55:37*
%MOMM*%
%LPD*%
G01*
G04 APERTURE LIST*
%TA.AperFunction,Profile*%
%ADD10C,0.050000*%
%TD*%
%ADD11C,0.150000*%
G04 APERTURE END LIST*
D10*
X102000000Y-100000000D02*
G75*
G02*
X100000000Y-98000000I0J2000000D01*
G01*
X188000000Y-50000000D02*
G75*
G02*
X190000000Y-52000000I0J-2000000D01*
G01*
X190000000Y-52000000D02*
X190000000Y-98000000D01*
X100000000Y-52000000D02*
G75*
G02*
X102000000Y-50000000I2000000J0D01*
G01*
X188000000Y-100000000D02*
X102000000Y-100000000D01*
X102000000Y-50000000D02*
X188000000Y-50000000D01*
X190000000Y-98000000D02*
G75*
G02*
X188000000Y-100000000I-2000000J0D01*
G01*
X100000000Y-98000000D02*
X100000000Y-52000000D01*
D11*
X140476191Y-104504818D02*
X140666667Y-104504818D01*
X140666667Y-104504818D02*
X140761905Y-104457199D01*
X140761905Y-104457199D02*
X140809524Y-104409579D01*
X140809524Y-104409579D02*
X140904762Y-104266722D01*
X140904762Y-104266722D02*
X140952381Y-104076246D01*
X140952381Y-104076246D02*
X140952381Y-103695294D01*
X140952381Y-103695294D02*
X140904762Y-103600056D01*
X140904762Y-103600056D02*
X140857143Y-103552437D01*
X140857143Y-103552437D02*
X140761905Y-103504818D01*
X140761905Y-103504818D02*
X140571429Y-103504818D01*
X140571429Y-103504818D02*
X140476191Y-103552437D01*
X140476191Y-103552437D02*
X140428572Y-103600056D01*
X140428572Y-103600056D02*
X140380953Y-103695294D01*
X140380953Y-103695294D02*
X140380953Y-103933389D01*
X140380953Y-103933389D02*
X140428572Y-104028627D01*
X140428572Y-104028627D02*
X140476191Y-104076246D01*
X140476191Y-104076246D02*
X140571429Y-104123865D01*
X140571429Y-104123865D02*
X140761905Y-104123865D01*
X140761905Y-104123865D02*
X140857143Y-104076246D01*
X140857143Y-104076246D02*
X140904762Y-104028627D01*
X140904762Y-104028627D02*
X140952381Y-103933389D01*
X141571429Y-103504818D02*
X141666667Y-103504818D01*
X141666667Y-103504818D02*
X141761905Y-103552437D01*
X141761905Y-103552437D02*
X141809524Y-103600056D01*
X141809524Y-103600056D02*
X141857143Y-103695294D01*
X141857143Y-103695294D02*
X141904762Y-103885770D01*
X141904762Y-103885770D02*
X141904762Y-104123865D01*
X141904762Y-104123865D02*
X141857143Y-104314341D01*
X141857143Y-104314341D02*
X141809524Y-104409579D01*
X141809524Y-104409579D02*
X141761905Y-104457199D01*
X141761905Y-104457199D02*
X141666667Y-104504818D01*
X141666667Y-104504818D02*
X141571429Y-104504818D01*
X141571429Y-104504818D02*
X141476191Y-104457199D01*
X141476191Y-104457199D02*
X141428572Y-104409579D01*
X141428572Y-104409579D02*
X141380953Y-104314341D01*
X141380953Y-104314341D02*
X141333334Y-104123865D01*
X141333334Y-104123865D02*
X141333334Y-103885770D01*
X141333334Y-103885770D02*
X141380953Y-103695294D01*
X141380953Y-103695294D02*
X141428572Y-103600056D01*
X141428572Y-103600056D02*
X141476191Y-103552437D01*
X141476191Y-103552437D02*
X141571429Y-103504818D01*
X142333334Y-104409579D02*
X142380953Y-104457199D01*
X142380953Y-104457199D02*
X142333334Y-104504818D01*
X142333334Y-104504818D02*
X142285715Y-104457199D01*
X142285715Y-104457199D02*
X142333334Y-104409579D01*
X142333334Y-104409579D02*
X142333334Y-104504818D01*
X143000000Y-103504818D02*
X143095238Y-103504818D01*
X143095238Y-103504818D02*
X143190476Y-103552437D01*
X143190476Y-103552437D02*
X143238095Y-103600056D01*
X143238095Y-103600056D02*
X143285714Y-103695294D01*
X143285714Y-103695294D02*
X143333333Y-103885770D01*
X143333333Y-103885770D02*
X143333333Y-104123865D01*
X143333333Y-104123865D02*
X143285714Y-104314341D01*
X143285714Y-104314341D02*
X143238095Y-104409579D01*
X143238095Y-104409579D02*
X143190476Y-104457199D01*
X143190476Y-104457199D02*
X143095238Y-104504818D01*
X143095238Y-104504818D02*
X143000000Y-104504818D01*
X143000000Y-104504818D02*
X142904762Y-104457199D01*
X142904762Y-104457199D02*
X142857143Y-104409579D01*
X142857143Y-104409579D02*
X142809524Y-104314341D01*
X142809524Y-104314341D02*
X142761905Y-104123865D01*
X142761905Y-104123865D02*
X142761905Y-103885770D01*
X142761905Y-103885770D02*
X142809524Y-103695294D01*
X142809524Y-103695294D02*
X142857143Y-103600056D01*
X142857143Y-103600056D02*
X142904762Y-103552437D01*
X142904762Y-103552437D02*
X143000000Y-103504818D01*
X143952381Y-103504818D02*
X144047619Y-103504818D01*
X144047619Y-103504818D02*
X144142857Y-103552437D01*
X144142857Y-103552437D02*
X144190476Y-103600056D01*
X144190476Y-103600056D02*
X144238095Y-103695294D01*
X144238095Y-103695294D02*
X144285714Y-103885770D01*
X144285714Y-103885770D02*
X144285714Y-104123865D01*
X144285714Y-104123865D02*
X144238095Y-104314341D01*
X144238095Y-104314341D02*
X144190476Y-104409579D01*
X144190476Y-104409579D02*
X144142857Y-104457199D01*
X144142857Y-104457199D02*
X144047619Y-104504818D01*
X144047619Y-104504818D02*
X143952381Y-104504818D01*
X143952381Y-104504818D02*
X143857143Y-104457199D01*
X143857143Y-104457199D02*
X143809524Y-104409579D01*
X143809524Y-104409579D02*
X143761905Y-104314341D01*
X143761905Y-104314341D02*
X143714286Y-104123865D01*
X143714286Y-104123865D02*
X143714286Y-103885770D01*
X143714286Y-103885770D02*
X143761905Y-103695294D01*
X143761905Y-103695294D02*
X143809524Y-103600056D01*
X143809524Y-103600056D02*
X143857143Y-103552437D01*
X143857143Y-103552437D02*
X143952381Y-103504818D01*
X144904762Y-103504818D02*
X145000000Y-103504818D01*
X145000000Y-103504818D02*
X145095238Y-103552437D01*
X145095238Y-103552437D02*
X145142857Y-103600056D01*
X145142857Y-103600056D02*
X145190476Y-103695294D01*
X145190476Y-103695294D02*
X145238095Y-103885770D01*
X145238095Y-103885770D02*
X145238095Y-104123865D01*
X145238095Y-104123865D02*
X145190476Y-104314341D01*
X145190476Y-104314341D02*
X145142857Y-104409579D01*
X145142857Y-104409579D02*
X145095238Y-104457199D01*
X145095238Y-104457199D02*
X145000000Y-104504818D01*
X145000000Y-104504818D02*
X144904762Y-104504818D01*
X144904762Y-104504818D02*
X144809524Y-104457199D01*
X144809524Y-104457199D02*
X144761905Y-104409579D01*
X144761905Y-104409579D02*
X144714286Y-104314341D01*
X144714286Y-104314341D02*
X144666667Y-104123865D01*
X144666667Y-104123865D02*
X144666667Y-103885770D01*
X144666667Y-103885770D02*
X144714286Y-103695294D01*
X144714286Y-103695294D02*
X144761905Y-103600056D01*
X144761905Y-103600056D02*
X144809524Y-103552437D01*
X144809524Y-103552437D02*
X144904762Y-103504818D01*
X145857143Y-103504818D02*
X145952381Y-103504818D01*
X145952381Y-103504818D02*
X146047619Y-103552437D01*
X146047619Y-103552437D02*
X146095238Y-103600056D01*
X146095238Y-103600056D02*
X146142857Y-103695294D01*
X146142857Y-103695294D02*
X146190476Y-103885770D01*
X146190476Y-103885770D02*
X146190476Y-104123865D01*
X146190476Y-104123865D02*
X146142857Y-104314341D01*
X146142857Y-104314341D02*
X146095238Y-104409579D01*
X146095238Y-104409579D02*
X146047619Y-104457199D01*
X146047619Y-104457199D02*
X145952381Y-104504818D01*
X145952381Y-104504818D02*
X145857143Y-104504818D01*
X145857143Y-104504818D02*
X145761905Y-104457199D01*
X145761905Y-104457199D02*
X145714286Y-104409579D01*
X145714286Y-104409579D02*
X145666667Y-104314341D01*
X145666667Y-104314341D02*
X145619048Y-104123865D01*
X145619048Y-104123865D02*
X145619048Y-103885770D01*
X145619048Y-103885770D02*
X145666667Y-103695294D01*
X145666667Y-103695294D02*
X145714286Y-103600056D01*
X145714286Y-103600056D02*
X145761905Y-103552437D01*
X145761905Y-103552437D02*
X145857143Y-103504818D01*
X147380953Y-104504818D02*
X147380953Y-103838151D01*
X147380953Y-103933389D02*
X147428572Y-103885770D01*
X147428572Y-103885770D02*
X147523810Y-103838151D01*
X147523810Y-103838151D02*
X147666667Y-103838151D01*
X147666667Y-103838151D02*
X147761905Y-103885770D01*
X147761905Y-103885770D02*
X147809524Y-103981008D01*
X147809524Y-103981008D02*
X147809524Y-104504818D01*
X147809524Y-103981008D02*
X147857143Y-103885770D01*
X147857143Y-103885770D02*
X147952381Y-103838151D01*
X147952381Y-103838151D02*
X148095238Y-103838151D01*
X148095238Y-103838151D02*
X148190477Y-103885770D01*
X148190477Y-103885770D02*
X148238096Y-103981008D01*
X148238096Y-103981008D02*
X148238096Y-104504818D01*
X148714286Y-104504818D02*
X148714286Y-103838151D01*
X148714286Y-103933389D02*
X148761905Y-103885770D01*
X148761905Y-103885770D02*
X148857143Y-103838151D01*
X148857143Y-103838151D02*
X149000000Y-103838151D01*
X149000000Y-103838151D02*
X149095238Y-103885770D01*
X149095238Y-103885770D02*
X149142857Y-103981008D01*
X149142857Y-103981008D02*
X149142857Y-104504818D01*
X149142857Y-103981008D02*
X149190476Y-103885770D01*
X149190476Y-103885770D02*
X149285714Y-103838151D01*
X149285714Y-103838151D02*
X149428571Y-103838151D01*
X149428571Y-103838151D02*
X149523810Y-103885770D01*
X149523810Y-103885770D02*
X149571429Y-103981008D01*
X149571429Y-103981008D02*
X149571429Y-104504818D01*
D10*
X100000000Y-98500000D02*
X100000000Y-105786419D01*
X190000000Y-98500000D02*
X190000000Y-105786419D01*
X100000000Y-105199999D02*
X190000000Y-105199999D01*
X100000000Y-105199999D02*
X190000000Y-105199999D01*
X100000000Y-105199999D02*
X101126504Y-104613578D01*
X100000000Y-105199999D02*
X101126504Y-105786420D01*
X190000000Y-105199999D02*
X188873496Y-105786420D01*
X190000000Y-105199999D02*
X188873496Y-104613578D01*
D11*
X194004819Y-79095237D02*
X194004819Y-79571427D01*
X194004819Y-79571427D02*
X194481009Y-79619046D01*
X194481009Y-79619046D02*
X194433390Y-79571427D01*
X194433390Y-79571427D02*
X194385771Y-79476189D01*
X194385771Y-79476189D02*
X194385771Y-79238094D01*
X194385771Y-79238094D02*
X194433390Y-79142856D01*
X194433390Y-79142856D02*
X194481009Y-79095237D01*
X194481009Y-79095237D02*
X194576247Y-79047618D01*
X194576247Y-79047618D02*
X194814342Y-79047618D01*
X194814342Y-79047618D02*
X194909580Y-79095237D01*
X194909580Y-79095237D02*
X194957200Y-79142856D01*
X194957200Y-79142856D02*
X195004819Y-79238094D01*
X195004819Y-79238094D02*
X195004819Y-79476189D01*
X195004819Y-79476189D02*
X194957200Y-79571427D01*
X194957200Y-79571427D02*
X194909580Y-79619046D01*
X194004819Y-78428570D02*
X194004819Y-78333332D01*
X194004819Y-78333332D02*
X194052438Y-78238094D01*
X194052438Y-78238094D02*
X194100057Y-78190475D01*
X194100057Y-78190475D02*
X194195295Y-78142856D01*
X194195295Y-78142856D02*
X194385771Y-78095237D01*
X194385771Y-78095237D02*
X194623866Y-78095237D01*
X194623866Y-78095237D02*
X194814342Y-78142856D01*
X194814342Y-78142856D02*
X194909580Y-78190475D01*
X194909580Y-78190475D02*
X194957200Y-78238094D01*
X194957200Y-78238094D02*
X195004819Y-78333332D01*
X195004819Y-78333332D02*
X195004819Y-78428570D01*
X195004819Y-78428570D02*
X194957200Y-78523808D01*
X194957200Y-78523808D02*
X194909580Y-78571427D01*
X194909580Y-78571427D02*
X194814342Y-78619046D01*
X194814342Y-78619046D02*
X194623866Y-78666665D01*
X194623866Y-78666665D02*
X194385771Y-78666665D01*
X194385771Y-78666665D02*
X194195295Y-78619046D01*
X194195295Y-78619046D02*
X194100057Y-78571427D01*
X194100057Y-78571427D02*
X194052438Y-78523808D01*
X194052438Y-78523808D02*
X194004819Y-78428570D01*
X194909580Y-77666665D02*
X194957200Y-77619046D01*
X194957200Y-77619046D02*
X195004819Y-77666665D01*
X195004819Y-77666665D02*
X194957200Y-77714284D01*
X194957200Y-77714284D02*
X194909580Y-77666665D01*
X194909580Y-77666665D02*
X195004819Y-77666665D01*
X194004819Y-76999999D02*
X194004819Y-76904761D01*
X194004819Y-76904761D02*
X194052438Y-76809523D01*
X194052438Y-76809523D02*
X194100057Y-76761904D01*
X194100057Y-76761904D02*
X194195295Y-76714285D01*
X194195295Y-76714285D02*
X194385771Y-76666666D01*
X194385771Y-76666666D02*
X194623866Y-76666666D01*
X194623866Y-76666666D02*
X194814342Y-76714285D01*
X194814342Y-76714285D02*
X194909580Y-76761904D01*
X194909580Y-76761904D02*
X194957200Y-76809523D01*
X194957200Y-76809523D02*
X195004819Y-76904761D01*
X195004819Y-76904761D02*
X195004819Y-76999999D01*
X195004819Y-76999999D02*
X194957200Y-77095237D01*
X194957200Y-77095237D02*
X194909580Y-77142856D01*
X194909580Y-77142856D02*
X194814342Y-77190475D01*
X194814342Y-77190475D02*
X194623866Y-77238094D01*
X194623866Y-77238094D02*
X194385771Y-77238094D01*
X194385771Y-77238094D02*
X194195295Y-77190475D01*
X194195295Y-77190475D02*
X194100057Y-77142856D01*
X194100057Y-77142856D02*
X194052438Y-77095237D01*
X194052438Y-77095237D02*
X194004819Y-76999999D01*
X194004819Y-76047618D02*
X194004819Y-75952380D01*
X194004819Y-75952380D02*
X194052438Y-75857142D01*
X194052438Y-75857142D02*
X194100057Y-75809523D01*
X194100057Y-75809523D02*
X194195295Y-75761904D01*
X194195295Y-75761904D02*
X194385771Y-75714285D01*
X194385771Y-75714285D02*
X194623866Y-75714285D01*
X194623866Y-75714285D02*
X194814342Y-75761904D01*
X194814342Y-75761904D02*
X194909580Y-75809523D01*
X194909580Y-75809523D02*
X194957200Y-75857142D01*
X194957200Y-75857142D02*
X195004819Y-75952380D01*
X195004819Y-75952380D02*
X195004819Y-76047618D01*
X195004819Y-76047618D02*
X194957200Y-76142856D01*
X194957200Y-76142856D02*
X194909580Y-76190475D01*
X194909580Y-76190475D02*
X194814342Y-76238094D01*
X194814342Y-76238094D02*
X194623866Y-76285713D01*
X194623866Y-76285713D02*
X194385771Y-76285713D01*
X194385771Y-76285713D02*
X194195295Y-76238094D01*
X194195295Y-76238094D02*
X194100057Y-76190475D01*
X194100057Y-76190475D02*
X194052438Y-76142856D01*
X194052438Y-76142856D02*
X194004819Y-76047618D01*
X194004819Y-75095237D02*
X194004819Y-74999999D01*
X194004819Y-74999999D02*
X194052438Y-74904761D01*
X194052438Y-74904761D02*
X194100057Y-74857142D01*
X194100057Y-74857142D02*
X194195295Y-74809523D01*
X194195295Y-74809523D02*
X194385771Y-74761904D01*
X194385771Y-74761904D02*
X194623866Y-74761904D01*
X194623866Y-74761904D02*
X194814342Y-74809523D01*
X194814342Y-74809523D02*
X194909580Y-74857142D01*
X194909580Y-74857142D02*
X194957200Y-74904761D01*
X194957200Y-74904761D02*
X195004819Y-74999999D01*
X195004819Y-74999999D02*
X195004819Y-75095237D01*
X195004819Y-75095237D02*
X194957200Y-75190475D01*
X194957200Y-75190475D02*
X194909580Y-75238094D01*
X194909580Y-75238094D02*
X194814342Y-75285713D01*
X194814342Y-75285713D02*
X194623866Y-75333332D01*
X194623866Y-75333332D02*
X194385771Y-75333332D01*
X194385771Y-75333332D02*
X194195295Y-75285713D01*
X194195295Y-75285713D02*
X194100057Y-75238094D01*
X194100057Y-75238094D02*
X194052438Y-75190475D01*
X194052438Y-75190475D02*
X194004819Y-75095237D01*
X194004819Y-74142856D02*
X194004819Y-74047618D01*
X194004819Y-74047618D02*
X194052438Y-73952380D01*
X194052438Y-73952380D02*
X194100057Y-73904761D01*
X194100057Y-73904761D02*
X194195295Y-73857142D01*
X194195295Y-73857142D02*
X194385771Y-73809523D01*
X194385771Y-73809523D02*
X194623866Y-73809523D01*
X194623866Y-73809523D02*
X194814342Y-73857142D01*
X194814342Y-73857142D02*
X194909580Y-73904761D01*
X194909580Y-73904761D02*
X194957200Y-73952380D01*
X194957200Y-73952380D02*
X195004819Y-74047618D01*
X195004819Y-74047618D02*
X195004819Y-74142856D01*
X195004819Y-74142856D02*
X194957200Y-74238094D01*
X194957200Y-74238094D02*
X194909580Y-74285713D01*
X194909580Y-74285713D02*
X194814342Y-74333332D01*
X194814342Y-74333332D02*
X194623866Y-74380951D01*
X194623866Y-74380951D02*
X194385771Y-74380951D01*
X194385771Y-74380951D02*
X194195295Y-74333332D01*
X194195295Y-74333332D02*
X194100057Y-74285713D01*
X194100057Y-74285713D02*
X194052438Y-74238094D01*
X194052438Y-74238094D02*
X194004819Y-74142856D01*
X195004819Y-72619046D02*
X194338152Y-72619046D01*
X194433390Y-72619046D02*
X194385771Y-72571427D01*
X194385771Y-72571427D02*
X194338152Y-72476189D01*
X194338152Y-72476189D02*
X194338152Y-72333332D01*
X194338152Y-72333332D02*
X194385771Y-72238094D01*
X194385771Y-72238094D02*
X194481009Y-72190475D01*
X194481009Y-72190475D02*
X195004819Y-72190475D01*
X194481009Y-72190475D02*
X194385771Y-72142856D01*
X194385771Y-72142856D02*
X194338152Y-72047618D01*
X194338152Y-72047618D02*
X194338152Y-71904761D01*
X194338152Y-71904761D02*
X194385771Y-71809522D01*
X194385771Y-71809522D02*
X194481009Y-71761903D01*
X194481009Y-71761903D02*
X195004819Y-71761903D01*
X195004819Y-71285713D02*
X194338152Y-71285713D01*
X194433390Y-71285713D02*
X194385771Y-71238094D01*
X194385771Y-71238094D02*
X194338152Y-71142856D01*
X194338152Y-71142856D02*
X194338152Y-70999999D01*
X194338152Y-70999999D02*
X194385771Y-70904761D01*
X194385771Y-70904761D02*
X194481009Y-70857142D01*
X194481009Y-70857142D02*
X195004819Y-70857142D01*
X194481009Y-70857142D02*
X194385771Y-70809523D01*
X194385771Y-70809523D02*
X194338152Y-70714285D01*
X194338152Y-70714285D02*
X194338152Y-70571428D01*
X194338152Y-70571428D02*
X194385771Y-70476189D01*
X194385771Y-70476189D02*
X194481009Y-70428570D01*
X194481009Y-70428570D02*
X195004819Y-70428570D01*
D10*
X188500000Y-100000000D02*
X196286420Y-100000000D01*
X188500000Y-50000000D02*
X196286420Y-50000000D01*
X195700000Y-100000000D02*
X195700000Y-50000000D01*
X195700000Y-100000000D02*
X195700000Y-50000000D01*
X195700000Y-100000000D02*
X195113579Y-98873496D01*
X195700000Y-100000000D02*
X196286421Y-98873496D01*
X195700000Y-50000000D02*
X196286421Y-51126504D01*
X195700000Y-50000000D02*
X195113579Y-51126504D01*
M02*
